999
dxflib 2.0.4.8
  0
SECTION
  2
HEADER
  9
$ACADVER
  1
AC1015
  9
$HANDSEED
  5
FFFF
  9
$DIMASZ
 40
2.5
  9
$DIMGAP
 40
0.625
  9
$DIMEXO
 40
0.625
  9
$INSUNITS
 70
4
  9
$DIMTXT
 40
2.5
  9
$DIMSTYLE
  2
Standard
  9
$PLIMMAX
 10
210.0
 20
297.0
  9
$PLIMMIN
 10
0.0
 20
0.0
  9
$DIMEXE
 40
1.25
  0
ENDSEC
  0
SECTION
  2
TABLES
  0
TABLE
  2
VPORT
  5
8
100
AcDbSymbolTable
 70
1
  0
VPORT
  5
30
100
AcDbSymbolTableRecord
100
AcDbViewportTableRecord
  2
*Active
 70
0
 10
0.0
 20
0.0
 11
1.0
 21
1.0
 12
286.3055555555554861
 22
148.5
 13
0.0
 23
0.0
 14
10.0
 24
10.0
 15
10.0
 25
10.0
 16
0.0
 26
0.0
 36
1.0
 17
0.0
 27
0.0
 37
0.0
 40
297.0
 41
1.92798353909465
 42
50.0
 43
0.0
 44
0.0
 50
0.0
 51
0.0
 71
0
 72
100
 73
1
 74
3
 75
1
 76
1
 77
0
 78
0
281
0
 65
1
110
0.0
120
0.0
130
0.0
111
1.0
121
0.0
131
0.0
112
0.0
122
1.0
132
0.0
 79
0
146
0.0
  0
ENDTAB
  0
TABLE
  2
LTYPE
  5
5
100
AcDbSymbolTable
 70
21
  0
LTYPE
  5
14
100
AcDbSymbolTableRecord
100
AcDbLinetypeTableRecord
  2
ByBlock
 70
0
  3

 72
65
 73
0
 40
0.0
  0
LTYPE
  5
15
100
AcDbSymbolTableRecord
100
AcDbLinetypeTableRecord
  2
ByLayer
 70
0
  3

 72
65
 73
0
 40
0.0
  0
LTYPE
  5
16
100
AcDbSymbolTableRecord
100
AcDbLinetypeTableRecord
  2
CONTINUOUS
 70
0
  3
Solid line
 72
65
 73
0
 40
0.0
  0
LTYPE
  5
31
100
AcDbSymbolTableRecord
100
AcDbLinetypeTableRecord
  2
DOT
 70
0
  3
Dot . . . . . . . . . . . . . . . . . . . . . .
 72
65
 73
2
 40
6.3499999999999996
 49
0.0
 74
0
 49
-6.3499999999999996
 74
0
  0
LTYPE
  5
32
100
AcDbSymbolTableRecord
100
AcDbLinetypeTableRecord
  2
DOT2
 70
0
  3
Dot (.5x) .....................................
 72
65
 73
2
 40
3.1749999999999998
 49
0.0
 74
0
 49
-3.1749999999999998
 74
0
  0
LTYPE
  5
33
100
AcDbSymbolTableRecord
100
AcDbLinetypeTableRecord
  2
DOTX2
 70
0
  3
Dot (2x) .  .  .  .  .  .  .  .  .  .  .  .  .
 72
65
 73
2
 40
12.6999999999999993
 49
0.0
 74
0
 49
-12.6999999999999993
 74
0
  0
LTYPE
  5
34
100
AcDbSymbolTableRecord
100
AcDbLinetypeTableRecord
  2
DASHED
 70
0
  3
Dashed __ __ __ __ __ __ __ __ __ __ __ __ __ _
 72
65
 73
2
 40
19.0500000000000007
 49
12.6999999999999993
 74
0
 49
-6.3499999999999996
 74
0
  0
LTYPE
  5
35
100
AcDbSymbolTableRecord
100
AcDbLinetypeTableRecord
  2
DASHED2
 70
0
  3
Dashed (.5x) _ _ _ _ _ _ _ _ _ _ _ _ _ _ _ _ _
 72
65
 73
2
 40
9.5250000000000004
 49
6.3499999999999996
 74
0
 49
-3.1749999999999998
 74
0
  0
LTYPE
  5
36
100
AcDbSymbolTableRecord
100
AcDbLinetypeTableRecord
  2
DASHEDX2
 70
0
  3
Dashed (2x) ____  ____  ____  ____  ____  ___
 72
65
 73
2
 40
38.1000000000000014
 49
25.3999999999999986
 74
0
 49
-12.6999999999999993
 74
0
  0
LTYPE
  5
37
100
AcDbSymbolTableRecord
100
AcDbLinetypeTableRecord
  2
DASHDOT
 70
0
  3
Dash dot __ . __ . __ . __ . __ . __ . __ . __
 72
65
 73
4
 40
25.3999999999999986
 49
12.6999999999999993
 74
0
 49
-6.3499999999999996
 74
0
 49
0.0
 74
0
 49
-6.3499999999999996
 74
0
  0
LTYPE
  5
38
100
AcDbSymbolTableRecord
100
AcDbLinetypeTableRecord
  2
DASHDOT2
 70
0
  3
Dash dot (.5x) _._._._._._._._._._._._._._._.
 72
65
 73
4
 40
12.6999999999999993
 49
6.3499999999999996
 74
0
 49
-3.1749999999999998
 74
0
 49
0.0
 74
0
 49
-3.1749999999999998
 74
0
  0
LTYPE
  5
39
100
AcDbSymbolTableRecord
100
AcDbLinetypeTableRecord
  2
DASHDOTX2
 70
0
  3
Dash dot (2x) ____  .  ____  .  ____  .  ___
 72
65
 73
4
 40
50.7999999999999972
 49
25.3999999999999986
 74
0
 49
-12.6999999999999993
 74
0
 49
0.0
 74
0
 49
-12.6999999999999993
 74
0
  0
LTYPE
  5
3A
100
AcDbSymbolTableRecord
100
AcDbLinetypeTableRecord
  2
DIVIDE
 70
0
  3
Divide ____ . . ____ . . ____ . . ____ . . ____
 72
65
 73
6
 40
31.75
 49
12.6999999999999993
 74
0
 49
-6.3499999999999996
 74
0
 49
0.0
 74
0
 49
-6.3499999999999996
 74
0
 49
0.0
 74
0
 49
-6.3499999999999996
 74
0
  0
LTYPE
  5
3B
100
AcDbSymbolTableRecord
100
AcDbLinetypeTableRecord
  2
DIVIDE2
 70
0
  3
Divide (.5x) __..__..__..__..__..__..__..__.._
 72
65
 73
6
 40
15.875
 49
6.3499999999999996
 74
0
 49
-3.1749999999999998
 74
0
 49
0.0
 74
0
 49
-3.1749999999999998
 74
0
 49
0.0
 74
0
 49
-3.1749999999999998
 74
0
  0
LTYPE
  5
3C
100
AcDbSymbolTableRecord
100
AcDbLinetypeTableRecord
  2
DIVIDEX2
 70
0
  3
Divide (2x) ________  .  .  ________  .  .  _
 72
65
 73
6
 40
63.5
 49
25.3999999999999986
 74
0
 49
-12.6999999999999993
 74
0
 49
0.0
 74
0
 49
-12.6999999999999993
 74
0
 49
0.0
 74
0
 49
-12.6999999999999993
 74
0
  0
LTYPE
  5
3D
100
AcDbSymbolTableRecord
100
AcDbLinetypeTableRecord
  2
CENTER
 70
0
  3
Center ____ _ ____ _ ____ _ ____ _ ____ _ ____
 72
65
 73
4
 40
50.7999999999999972
 49
31.75
 74
0
 49
-6.3499999999999996
 74
0
 49
6.3499999999999996
 74
0
 49
-6.3499999999999996
 74
0
  0
LTYPE
  5
3E
100
AcDbSymbolTableRecord
100
AcDbLinetypeTableRecord
  2
CENTER2
 70
0
  3
Center (.5x) ___ _ ___ _ ___ _ ___ _ ___ _ ___
 72
65
 73
4
 40
28.5749999999999993
 49
19.0500000000000007
 74
0
 49
-3.1749999999999998
 74
0
 49
3.1749999999999998
 74
0
 49
-3.1749999999999998
 74
0
  0
LTYPE
  5
3F
100
AcDbSymbolTableRecord
100
AcDbLinetypeTableRecord
  2
CENTERX2
 70
0
  3
Center (2x) ________  __  ________  __  _____
 72
65
 73
4
 40
101.5999999999999943
 49
63.5
 74
0
 49
-12.6999999999999993
 74
0
 49
12.6999999999999993
 74
0
 49
-12.6999999999999993
 74
0
  0
LTYPE
  5
40
100
AcDbSymbolTableRecord
100
AcDbLinetypeTableRecord
  2
BORDER
 70
0
  3
Border __ __ . __ __ . __ __ . __ __ . __ __ .
 72
65
 73
6
 40
44.4500000000000028
 49
12.6999999999999993
 74
0
 49
-6.3499999999999996
 74
0
 49
12.6999999999999993
 74
0
 49
-6.3499999999999996
 74
0
 49
0.0
 74
0
 49
-6.3499999999999996
 74
0
  0
LTYPE
  5
41
100
AcDbSymbolTableRecord
100
AcDbLinetypeTableRecord
  2
BORDER2
 70
0
  3
Border (.5x) __.__.__.__.__.__.__.__.__.__.__.
 72
65
 73
6
 40
22.2250000000000014
 49
6.3499999999999996
 74
0
 49
-3.1749999999999998
 74
0
 49
6.3499999999999996
 74
0
 49
-3.1749999999999998
 74
0
 49
0.0
 74
0
 49
-3.1749999999999998
 74
0
  0
LTYPE
  5
42
100
AcDbSymbolTableRecord
100
AcDbLinetypeTableRecord
  2
BORDERX2
 70
0
  3
Border (2x) ____  ____  .  ____  ____  .  ___
 72
65
 73
6
 40
88.9000000000000057
 49
25.3999999999999986
 74
0
 49
-12.6999999999999993
 74
0
 49
25.3999999999999986
 74
0
 49
-12.6999999999999993
 74
0
 49
0.0
 74
0
 49
-12.6999999999999993
 74
0
  0
ENDTAB
  0
TABLE
  2
LAYER
  5
2
100
AcDbSymbolTable
 70
5
  0
LAYER
  5
10
100
AcDbSymbolTableRecord
100
AcDbLayerTableRecord
  2
0
 70
0
 62
7
  6
CONTINUOUS
370
0
390
F
  0
LAYER
  5
43
100
AcDbSymbolTableRecord
100
AcDbLayerTableRecord
  2
new-keys
 70
0
 62
7
  6
CONTINUOUS
370
0
390
F
  0
LAYER
  5
44
100
AcDbSymbolTableRecord
100
AcDbLayerTableRecord
  2
collum
 70
0
 62
7
  6
CONTINUOUS
370
0
390
F
  0
LAYER
  5
45
100
AcDbSymbolTableRecord
100
AcDbLayerTableRecord
  2
row
 70
0
 62
7
  6
CONTINUOUS
370
0
390
F
  0
LAYER
  5
46
100
AcDbSymbolTableRecord
100
AcDbLayerTableRecord
  2
pins
 70
0
 62
7
  6
CONTINUOUS
370
0
390
F
  0
ENDTAB
  0
TABLE
  2
STYLE
  5
3
100
AcDbSymbolTable
 70
1
  0
STYLE
  5
11
100
AcDbSymbolTableRecord
100
AcDbTextStyleTableRecord
  2
Standard
 70
0
 40
0.0
 41
0.75
 50
0.0
 71
0
 42
2.5
  3
txt
  4

  0
ENDTAB
  0
TABLE
  2
VIEW
  5
6
100
AcDbSymbolTable
 70
0
  0
ENDTAB
  0
TABLE
  2
UCS
  5
7
100
AcDbSymbolTable
 70
0
  0
ENDTAB
  0
TABLE
  2
APPID
  5
9
100
AcDbSymbolTable
 70
1
  0
APPID
  5
12
100
AcDbSymbolTableRecord
100
AcDbRegAppTableRecord
  2
ACAD
 70
0
  0
ENDTAB
  0
TABLE
  2
DIMSTYLE
  5
A
100
AcDbSymbolTable
 70
1
100
AcDbDimStyleTable
 71
0
  0
DIMSTYLE
105
27
100
AcDbSymbolTableRecord
100
AcDbDimStyleTableRecord
  2
Standard
 41
2.5
 42
0.625
 43
3.75
 44
1.25
 70
0
 73
0
 74
0
 77
1
 78
8
140
2.5
141
2.5
143
0.03937007874016
147
0.625
171
3
172
1
271
2
272
2
274
3
278
44
283
0
284
8
340
11
  0
ENDTAB
  0
TABLE
  2
BLOCK_RECORD
  5
1
100
AcDbSymbolTable
 70
1
  0
BLOCK_RECORD
  5
1F
100
AcDbSymbolTableRecord
100
AcDbBlockTableRecord
  2
*Model_Space
340
22
  0
BLOCK_RECORD
  5
1B
100
AcDbSymbolTableRecord
100
AcDbBlockTableRecord
  2
*Paper_Space
340
1E
  0
BLOCK_RECORD
  5
23
100
AcDbSymbolTableRecord
100
AcDbBlockTableRecord
  2
*Paper_Space0
340
26
  0
ENDTAB
  0
ENDSEC
  0
SECTION
  2
BLOCKS
  0
BLOCK
  5
20
100
AcDbEntity
  8
0
100
AcDbBlockBegin
  2
*Model_Space
 70
0
 10
0.0
 20
0.0
 30
0.0
  3
*Model_Space
  1

  0
ENDBLK
  5
21
100
AcDbEntity
  8
0
100
AcDbBlockEnd
  0
BLOCK
  5
1C
100
AcDbEntity
 67
1
  8
0
100
AcDbBlockBegin
  2
*Paper_Space
 70
0
 10
0.0
 20
0.0
 30
0.0
  3
*Paper_Space
  1

  0
ENDBLK
  5
1D
100
AcDbEntity
 67
1
  8
0
100
AcDbBlockEnd
  0
BLOCK
  5
24
100
AcDbEntity
  8
0
100
AcDbBlockBegin
  2
*Paper_Space0
 70
0
 10
0.0
 20
0.0
 30
0.0
  3
*Paper_Space0
  1

  0
ENDBLK
  5
25
100
AcDbEntity
  8
0
100
AcDbBlockEnd
  0
ENDSEC
  0
SECTION
  2
ENTITIES
  0
MTEXT
  5
47
100
AcDbEntity
100
AcDbMText
  8
0
 62
4
370
-1
  6
ByLayer
 10
-30.0
 20
122.0
 30
0.0
 40
3.0
 41
100.0
 71
1
 72
2
  1
esc\P~\P`
  7
normallatin1
 50
360.0
 73
1
 44
1.0
  0
MTEXT
  5
48
100
AcDbEntity
100
AcDbMText
  8
0
 62
4
370
-1
  6
ByLayer
 10
-11.0000000000000036
 20
122.0
 30
0.0
 40
3.0
 41
100.0
 71
1
 72
2
  1
!\P1
  7
normallatin1
 50
360.0
 73
1
 44
1.0
  0
MTEXT
  5
49
100
AcDbEntity
100
AcDbMText
  8
0
 62
4
370
-1
  6
ByLayer
 10
8.0
 20
122.0000000000000142
 30
0.0
 40
3.0
 41
100.0
 71
1
 72
2
  1
@\P2
  7
normallatin1
 50
360.0
 73
1
 44
1.0
  0
MTEXT
  5
4A
100
AcDbEntity
100
AcDbMText
  8
0
 62
4
370
-1
  6
ByLayer
 10
27.0
 20
120.9999999999999432
 30
0.0
 40
3.0
 41
100.0
 71
1
 72
2
  1
#\P3
  7
normallatin1
 50
360.0
 73
1
 44
1.0
  0
MTEXT
  5
4B
100
AcDbEntity
100
AcDbMText
  8
0
 62
4
370
-1
  6
ByLayer
 10
46.0
 20
120.9999999999998863
 30
0.0
 40
3.0
 41
100.0
 71
1
 72
2
  1
$\P4
  7
normallatin1
 50
360.0
 73
1
 44
1.0
  0
MTEXT
  5
4C
100
AcDbEntity
100
AcDbMText
  8
0
 62
4
370
-1
  6
ByLayer
 10
65.0
 20
120.9999999999999147
 30
0.0
 40
3.0
 41
100.0
 71
1
 72
2
  1
%\P5
  7
normallatin1
 50
360.0
 73
1
 44
1.0
  0
MTEXT
  5
4D
100
AcDbEntity
100
AcDbMText
  8
0
 62
4
370
-1
  6
ByLayer
 10
85.0000000000000142
 20
120.9999999999997868
 30
0.0
 40
3.0
 41
100.0
 71
1
 72
2
  1
^\P6
  7
normallatin1
 50
360.0
 73
1
 44
1.0
  0
MTEXT
  5
4E
100
AcDbEntity
100
AcDbMText
  8
0
 62
4
370
-1
  6
ByLayer
 10
103.0
 20
121.9999999999997158
 30
0.0
 40
3.0
 41
100.0
 71
1
 72
2
  1
&\P7\P
  7
normallatin1
 50
360.0
 73
1
 44
1.0
  0
MTEXT
  5
4F
100
AcDbEntity
100
AcDbMText
  8
0
 62
4
370
-1
  6
ByLayer
 10
121.0
 20
122.0000000000002842
 30
0.0
 40
3.0
 41
100.0
 71
1
 72
2
  1
*\P8
  7
normallatin1
 50
360.0
 73
1
 44
1.0
  0
MTEXT
  5
50
100
AcDbEntity
100
AcDbMText
  8
0
 62
4
370
-1
  6
ByLayer
 10
141.0
 20
121.0000000000005116
 30
0.0
 40
3.0
 41
100.0
 71
1
 72
2
  1
(\P9
  7
normallatin1
 50
360.0
 73
1
 44
1.0
  0
MTEXT
  5
51
100
AcDbEntity
100
AcDbMText
  8
0
 62
4
370
-1
  6
ByLayer
 10
160.0
 20
121.0000000000003411
 30
0.0
 40
3.0
 41
100.0
 71
1
 72
2
  1
)\P0\P
  7
normallatin1
 50
360.0
 73
1
 44
1.0
  0
MTEXT
  5
52
100
AcDbEntity
100
AcDbMText
  8
0
 62
4
370
-1
  6
ByLayer
 10
178.9999999999999716
 20
121.0000000000003979
 30
0.0
 40
3.0
 41
100.0
 71
1
 72
2
  1
_\P-
  7
normallatin1
 50
360.0
 73
1
 44
1.0
  0
MTEXT
  5
53
100
AcDbEntity
100
AcDbMText
  8
0
 62
4
370
-1
  6
ByLayer
 10
197.0
 20
121.0000000000001421
 30
0.0
 40
3.0
 41
100.0
 71
1
 72
2
  1
+\P=
  7
normallatin1
 50
360.0
 73
1
 44
1.0
  0
MTEXT
  5
54
100
AcDbEntity
100
AcDbMText
  8
0
 62
4
370
-1
  6
ByLayer
 10
216.0
 20
120.9999999999996589
 30
0.0
 40
3.0
 41
100.0
 71
1
 72
2
  1
<-
  7
normallatin1
 50
360.0
 73
1
 44
1.0
  0
MTEXT
  5
55
100
AcDbEntity
100
AcDbMText
  8
0
 62
4
370
-1
  6
ByLayer
 10
236.0
 20
120.9999999999983231
 30
0.0
 40
3.0
 41
100.0
 71
1
 72
2
  1
->
  7
normallatin1
 50
360.0
 73
1
 44
1.0
  0
MTEXT
  5
56
100
AcDbEntity
100
AcDbMText
  8
0
 62
4
370
-1
  6
ByLayer
 10
231.0
 20
102.9999999999997584
 30
0.0
 40
3.0
 41
100.0
 71
1
 72
2
  1
|\P\
  7
normallatin1
 50
360.0
 73
1
 44
1.0
  0
MTEXT
  5
57
100
AcDbEntity
100
AcDbMText
  8
0
 62
4
370
-1
  6
ByLayer
 10
207.0
 20
103.0000000000001137
 30
0.0
 40
3.0
 41
100.0
 71
1
 72
2
  1
\P]
  7
normallatin1
 50
360.0
 73
1
 44
1.0
  0
MTEXT
  5
58
100
AcDbEntity
100
AcDbMText
  8
0
 62
4
370
-1
  6
ByLayer
 10
187.9999999999999716
 20
102.9999999999997726
 30
0.0
 40
3.0
 41
100.0
 71
1
 72
2
  1
\P[
  7
normallatin1
 50
360.0
 73
1
 44
1.0
  0
MTEXT
  5
59
100
AcDbEntity
100
AcDbMText
  8
0
 62
4
370
-1
  6
ByLayer
 10
170.0
 20
102.9999999999999432
 30
0.0
 40
3.0
 41
100.0
 71
1
 72
2
  1
P\Pp
  7
normallatin1
 50
360.0
 73
1
 44
1.0
  0
MTEXT
  5
5A
100
AcDbEntity
100
AcDbMText
  8
0
 62
4
370
-1
  6
ByLayer
 10
151.0
 20
101.9999999999999858
 30
0.0
 40
3.0
 41
100.0
 71
1
 72
2
  1
O\Po\P
  7
normallatin1
 50
360.0
 73
1
 44
1.0
  0
MTEXT
  5
5B
100
AcDbEntity
100
AcDbMText
  8
0
 62
4
370
-1
  6
ByLayer
 10
132.0
 20
101.9999999999999289
 30
0.0
 40
3.0
 41
100.0
 71
1
 72
2
  1
I\Pi
  7
normallatin1
 50
360.0
 73
1
 44
1.0
  0
MTEXT
  5
5C
100
AcDbEntity
100
AcDbMText
  8
0
 62
4
370
-1
  6
ByLayer
 10
112.0
 20
101.9999999999999574
 30
0.0
 40
3.0
 41
100.0
 71
1
 72
2
  1
U\Pu
  7
normallatin1
 50
360.0
 73
1
 44
1.0
  0
MTEXT
  5
5D
100
AcDbEntity
100
AcDbMText
  8
0
 62
4
370
-1
  6
ByLayer
 10
94.0
 20
102.0000000000000568
 30
0.0
 40
3.0
 41
100.0
 71
1
 72
2
  1
Y\Py
  7
normallatin1
 50
360.0
 73
1
 44
1.0
  0
MTEXT
  5
5E
100
AcDbEntity
100
AcDbMText
  8
0
 62
4
370
-1
  6
ByLayer
 10
74.0
 20
102.0
 30
0.0
 40
3.0
 41
100.0
 71
1
 72
2
  1
T\Pt
  7
normallatin1
 50
360.0
 73
1
 44
1.0
  0
MTEXT
  5
5F
100
AcDbEntity
100
AcDbMText
  8
0
 62
4
370
-1
  6
ByLayer
 10
55.0
 20
102.0
 30
0.0
 40
3.0
 41
100.0
 71
1
 72
2
  1
R\Pr
  7
normallatin1
 50
360.0
 73
1
 44
1.0
  0
MTEXT
  5
60
100
AcDbEntity
100
AcDbMText
  8
0
 62
4
370
-1
  6
ByLayer
 10
36.0000000000000142
 20
101.9999999999999716
 30
0.0
 40
3.0
 41
100.0
 71
1
 72
2
  1
E\Pe
  7
normallatin1
 50
360.0
 73
1
 44
1.0
  0
MTEXT
  5
61
100
AcDbEntity
100
AcDbMText
  8
0
 62
4
370
-1
  6
ByLayer
 10
18.0
 20
102.0
 30
0.0
 40
3.0
 41
100.0
 71
1
 72
2
  1
W\Pw
  7
normallatin1
 50
360.0
 73
1
 44
1.0
  0
MTEXT
  5
62
100
AcDbEntity
100
AcDbMText
  8
0
 62
4
370
-1
  6
ByLayer
 10
0.0
 20
102.0
 30
0.0
 40
3.0
 41
100.0
 71
1
 72
2
  1
Q\Pq
  7
normallatin1
 50
360.0
 73
1
 44
1.0
  0
MTEXT
  5
63
100
AcDbEntity
100
AcDbMText
  8
0
 62
4
370
-1
  6
ByLayer
 10
-25.0000000000000071
 20
101.0
 30
0.0
 40
3.0
 41
100.0
 71
1
 72
2
  1
tab
  7
normallatin1
 50
360.0
 73
1
 44
1.0
  0
MTEXT
  5
64
100
AcDbEntity
100
AcDbMText
  8
0
 62
4
370
-1
  6
ByLayer
 10
-22.9999999999999893
 20
80.0
 30
0.0
 40
3.0
 41
100.0
 71
1
 72
2
  1
ctrl?
  7
normallatin1
 50
360.0
 73
1
 44
1.0
  0
MTEXT
  5
65
100
AcDbEntity
100
AcDbMText
  8
0
 62
4
370
-1
  6
ByLayer
 10
2.9999999999999858
 20
82.9999999999999716
 30
0.0
 40
3.0
 41
100.0
 71
1
 72
2
  1
A\Pa
  7
normallatin1
 50
360.0
 73
1
 44
1.0
  0
MTEXT
  5
66
100
AcDbEntity
100
AcDbMText
  8
0
 62
4
370
-1
  6
ByLayer
 10
21.9999999999999289
 20
81.9999999999999289
 30
0.0
 40
3.0
 41
100.0
 71
1
 72
2
  1
S\Ps
  7
normallatin1
 50
360.0
 73
1
 44
1.0
  0
MTEXT
  5
67
100
AcDbEntity
100
AcDbMText
  8
0
 62
4
370
-1
  6
ByLayer
 10
41.9999999999999574
 20
82.9999999999999147
 30
0.0
 40
3.0
 41
100.0
 71
1
 72
2
  1
D\Pd
  7
normallatin1
 50
360.0
 73
1
 44
1.0
  0
MTEXT
  5
68
100
AcDbEntity
100
AcDbMText
  8
0
 62
4
370
-1
  6
ByLayer
 10
61.0
 20
83.0000000000000142
 30
0.0
 40
3.0
 41
100.0
 71
1
 72
2
  1
F\Pf
  7
normallatin1
 50
360.0
 73
1
 44
1.0
  0
MTEXT
  5
69
100
AcDbEntity
100
AcDbMText
  8
0
 62
4
370
-1
  6
ByLayer
 10
80.0000000000000142
 20
83.0000000000000284
 30
0.0
 40
3.0
 41
100.0
 71
1
 72
2
  1
G\Pg
  7
normallatin1
 50
360.0
 73
1
 44
1.0
  0
MTEXT
  5
6A
100
AcDbEntity
100
AcDbMText
  8
0
 62
4
370
-1
  6
ByLayer
 10
98.9999999999999716
 20
82.9999999999999574
 30
0.0
 40
3.0
 41
100.0
 71
1
 72
2
  1
H\Ph
  7
normallatin1
 50
360.0
 73
1
 44
1.0
  0
MTEXT
  5
6B
100
AcDbEntity
100
AcDbMText
  8
0
 62
4
370
-1
  6
ByLayer
 10
117.9999999999999716
 20
82.9999999999999432
 30
0.0
 40
3.0
 41
100.0
 71
1
 72
2
  1
J\Pj
  7
normallatin1
 50
360.0
 73
1
 44
1.0
  0
MTEXT
  5
6C
100
AcDbEntity
100
AcDbMText
  8
0
 62
4
370
-1
  6
ByLayer
 10
137.0
 20
83.0000000000000995
 30
0.0
 40
3.0
 41
100.0
 71
1
 72
2
  1
K\Pk
  7
normallatin1
 50
360.0
 73
1
 44
1.0
  0
MTEXT
  5
6D
100
AcDbEntity
100
AcDbMText
  8
0
 62
4
370
-1
  6
ByLayer
 10
155.0
 20
83.0000000000000568
 30
0.0
 40
3.0
 41
100.0
 71
1
 72
2
  1
L\Pl
  7
normallatin1
 50
360.0
 73
1
 44
1.0
  0
MTEXT
  5
6E
100
AcDbEntity
100
AcDbMText
  8
0
 62
4
370
-1
  6
ByLayer
 10
174.0000000000000284
 20
82.9999999999999289
 30
0.0
 40
3.0
 41
100.0
 71
1
 72
2
  1
:\P;
  7
normallatin1
 50
360.0
 73
1
 44
1.0
  0
MTEXT
  5
6F
100
AcDbEntity
100
AcDbMText
  8
0
 62
4
370
-1
  6
ByLayer
 10
194.0
 20
83.0
 30
0.0
 40
3.0
 41
100.0
 71
1
 72
2
  1
"\P'
  7
normallatin1
 50
360.0
 73
1
 44
1.0
  0
MTEXT
  5
70
100
AcDbEntity
100
AcDbMText
  8
0
 62
4
370
-1
  6
ByLayer
 10
225.0
 20
81.9999999999999716
 30
0.0
 40
3.0
 41
100.0
 71
1
 72
2
  1
ret\P
  7
normallatin1
 50
360.0
 73
1
 44
1.0
  0
MTEXT
  5
71
100
AcDbEntity
100
AcDbMText
  8
0
 62
4
370
-1
  6
ByLayer
 10
-18.0000000000000426
 20
62.9999999999999858
 30
0.0
 40
3.0
 41
100.0
 71
1
 72
2
  1
shift
  7
normallatin1
 50
360.0
 73
1
 44
1.0
  0
MTEXT
  5
72
100
AcDbEntity
100
AcDbMText
  8
0
 62
4
370
-1
  6
ByLayer
 10
12.9999999999999929
 20
63.9999999999999929
 30
0.0
 40
3.0
 41
100.0
 71
1
 72
2
  1
Z\Pz
  7
normallatin1
 50
360.0
 73
1
 44
1.0
  0
MTEXT
  5
73
100
AcDbEntity
100
AcDbMText
  8
0
 62
4
370
-1
  6
ByLayer
 10
31.9999999999999147
 20
64.9999999999999147
 30
0.0
 40
3.0
 41
100.0
 71
1
 72
2
  1
X\Px
  7
normallatin1
 50
360.0
 73
1
 44
1.0
  0
MTEXT
  5
74
100
AcDbEntity
100
AcDbMText
  8
0
 62
4
370
-1
  6
ByLayer
 10
50.9999999999999716
 20
63.9999999999999645
 30
0.0
 40
3.0
 41
100.0
 71
1
 72
2
  1
C\Pc
  7
normallatin1
 50
360.0
 73
1
 44
1.0
  0
MTEXT
  5
75
100
AcDbEntity
100
AcDbMText
  8
0
 62
4
370
-1
  6
ByLayer
 10
70.9999999999999574
 20
63.9999999999999574
 30
0.0
 40
3.0
 41
100.0
 71
1
 72
2
  1
V\Pv
  7
normallatin1
 50
360.0
 73
1
 44
1.0
  0
MTEXT
  5
76
100
AcDbEntity
100
AcDbMText
  8
0
 62
4
370
-1
  6
ByLayer
 10
89.9999999999999716
 20
63.9999999999999289
 30
0.0
 40
3.0
 41
100.0
 71
1
 72
2
  1
B\Pb
  7
normallatin1
 50
360.0
 73
1
 44
1.0
  0
MTEXT
  5
77
100
AcDbEntity
100
AcDbMText
  8
0
 62
4
370
-1
  6
ByLayer
 10
107.9999999999999716
 20
63.9999999999999716
 30
0.0
 40
3.0
 41
100.0
 71
1
 72
2
  1
N\Pn
  7
normallatin1
 50
360.0
 73
1
 44
1.0
  0
MTEXT
  5
78
100
AcDbEntity
100
AcDbMText
  8
0
 62
4
370
-1
  6
ByLayer
 10
127.0
 20
64.0000000000000142
 30
0.0
 40
3.0
 41
100.0
 71
1
 72
2
  1
M\Pm
  7
normallatin1
 50
360.0
 73
1
 44
1.0
  0
MTEXT
  5
79
100
AcDbEntity
100
AcDbMText
  8
0
 62
4
370
-1
  6
ByLayer
 10
146.0
 20
63.9999999999999787
 30
0.0
 40
3.0
 41
100.0
 71
1
 72
2
  1
<\P,
  7
normallatin1
 50
360.0
 73
1
 44
1.0
  0
MTEXT
  5
7A
100
AcDbEntity
100
AcDbMText
  8
0
 62
4
370
-1
  6
ByLayer
 10
164.9999999999999432
 20
63.9999999999998863
 30
0.0
 40
3.0
 41
100.0
 71
1
 72
2
  1
>\P.
  7
normallatin1
 50
360.0
 73
1
 44
1.0
  0
MTEXT
  5
7B
100
AcDbEntity
100
AcDbMText
  8
0
 62
4
370
-1
  6
ByLayer
 10
184.9999999999999716
 20
63.9999999999998579
 30
0.0
 40
3.0
 41
100.0
 71
1
 72
2
  1
?\P/
  7
normallatin1
 50
360.0
 73
1
 44
1.0
  0
MTEXT
  5
7C
100
AcDbEntity
100
AcDbMText
  8
0
 62
4
370
-1
  6
ByLayer
 10
-27.0000000000001492
 20
43.0
 30
0.0
 40
3.0
 41
100.0
 71
1
 72
2
  1
ctrl
  7
normallatin1
 50
360.0
 73
1
 44
1.0
  0
MTEXT
  5
7D
100
AcDbEntity
100
AcDbMText
  8
0
 62
4
370
-1
  6
ByLayer
 10
196.7999999999999829
 20
42.9999999999998792
 30
0.0
 40
3.0
 41
100.0
 71
1
 72
2
  1
ctrl
  7
normallatin1
 50
360.0
 73
1
 44
1.0
  0
MTEXT
  5
7E
100
AcDbEntity
100
AcDbMText
  8
0
 62
4
370
-1
  6
ByLayer
 10
176.7999999999999829
 20
44.9999999999999218
 30
0.0
 40
3.0
 41
100.0
 71
1
 72
2
  1
fn
  7
normallatin1
 50
360.0
 73
1
 44
1.0
  0
MTEXT
  5
7F
100
AcDbEntity
100
AcDbMText
  8
0
 62
4
370
-1
  6
ByLayer
 10
-4.8000000000001215
 20
44.9999999999999218
 30
0.0
 40
3.0
 41
100.0
 71
1
 72
2
  1
fn
  7
normallatin1
 50
360.0
 73
1
 44
1.0
  0
MTEXT
  5
80
100
AcDbEntity
100
AcDbMText
  8
0
 62
4
370
-1
  6
ByLayer
 10
-27.0000000000001492
 20
43.0
 30
0.0
 40
3.0
 41
100.0
 71
1
 72
2
  1
ctrl
  7
normallatin1
 50
360.0
 73
1
 44
1.0
  0
MTEXT
  5
81
100
AcDbEntity
100
AcDbMText
  8
0
 62
4
370
-1
  6
ByLayer
 10
196.7999999999999829
 20
42.9999999999998792
 30
0.0
 40
3.0
 41
100.0
 71
1
 72
2
  1
ctrl
  7
normallatin1
 50
360.0
 73
1
 44
1.0
  0
MTEXT
  5
82
100
AcDbEntity
100
AcDbMText
  8
0
 62
4
370
-1
  6
ByLayer
 10
-4.8000000000001215
 20
44.9999999999999218
 30
0.0
 40
3.0
 41
100.0
 71
1
 72
2
  1
fn
  7
normallatin1
 50
360.0
 73
1
 44
1.0
  0
CIRCLE
  5
83
100
AcDbEntity
100
AcDbCircle
  8
0
 62
5
370
-1
  6
ByLayer
 10
-40.0
 20
131.0
 30
0.0
 40
1.5
  0
CIRCLE
  5
84
100
AcDbEntity
100
AcDbCircle
  8
0
 62
5
370
-1
  6
ByLayer
 10
255.0
 20
131.0
 30
0.0
 40
1.5
  0
CIRCLE
  5
85
100
AcDbEntity
100
AcDbCircle
  8
0
 62
5
370
-1
  6
ByLayer
 10
255.0
 20
26.0
 30
0.0
 40
1.5
  0
CIRCLE
  5
86
100
AcDbEntity
100
AcDbCircle
  8
0
 62
5
370
-1
  6
ByLayer
 10
-40.0
 20
26.0
 30
0.0
 40
1.5
  0
CIRCLE
  5
87
100
AcDbEntity
100
AcDbCircle
  8
0
 62
5
370
-1
  6
ByLayer
 10
107.5
 20
131.0
 30
0.0
 40
1.5
  0
ARC
  5
88
100
AcDbEntity
  8
0
 62
5
370
-1
  6
ByLayer
100
AcDbCircle
 10
-42.0
 20
133.0
 30
0.0
 40
3.0
100
AcDbArc
 50
90.0
 51
180.0
  0
LINE
  5
89
100
AcDbEntity
100
AcDbLine
  8
0
 62
5
370
-1
  6
ByLayer
 10
-42.0
 20
136.0
 30
0.0
 11
257.0
 21
136.0
 31
0.0
  0
ARC
  5
8A
100
AcDbEntity
  8
0
 62
5
370
-1
  6
ByLayer
100
AcDbCircle
 10
257.0
 20
133.0
 30
0.0
 40
3.0
100
AcDbArc
 50
0.0
 51
90.0
  0
LINE
  5
8B
100
AcDbEntity
100
AcDbLine
  8
0
 62
5
370
-1
  6
ByLayer
 10
260.0
 20
133.0
 30
0.0
 11
260.0
 21
24.0
 31
0.0
  0
ARC
  5
8C
100
AcDbEntity
  8
0
 62
5
370
-1
  6
ByLayer
100
AcDbCircle
 10
257.0
 20
24.0
 30
0.0
 40
3.0
100
AcDbArc
 50
270.0
 51
0.0
  0
LINE
  5
8D
100
AcDbEntity
100
AcDbLine
  8
0
 62
5
370
-1
  6
ByLayer
 10
-45.0
 20
24.0
 30
0.0
 11
-45.0
 21
133.0
 31
0.0
  0
ARC
  5
8E
100
AcDbEntity
  8
0
 62
5
370
-1
  6
ByLayer
100
AcDbCircle
 10
-42.0
 20
24.0
 30
0.0
 40
3.0
100
AcDbArc
 50
180.0
 51
270.0
  0
LINE
  5
8F
100
AcDbEntity
100
AcDbLine
  8
0
 62
5
370
-1
  6
ByLayer
 10
-42.0
 20
21.0
 30
0.0
 11
257.0
 21
21.0
 31
0.0
  0
CIRCLE
  5
90
100
AcDbEntity
100
AcDbCircle
  8
0
 62
5
370
-1
  6
ByLayer
 10
56.0
 20
88.0999999999999943
 30
0.0
 40
0.75
  0
CIRCLE
  5
91
100
AcDbEntity
100
AcDbCircle
  8
0
 62
5
370
-1
  6
ByLayer
 10
170.2999999999999545
 20
87.9999999999999716
 30
0.0
 40
0.75
  0
CIRCLE
  5
92
100
AcDbEntity
100
AcDbCircle
  8
0
 62
5
370
-1
  6
ByLayer
 10
107.4999999999999858
 20
26.0
 30
0.0
 40
1.5
  0
LINE
  5
93
100
AcDbEntity
100
AcDbLine
  8
new-keys
 62
5
370
-1
  6
ByLayer
 10
-32.2999999999999972
 20
123.3000000000000114
 30
0.0
 11
-18.7000000000000028
 21
123.3000000000000114
 31
0.0
  0
LINE
  5
94
100
AcDbEntity
100
AcDbLine
  8
new-keys
 62
5
370
-1
  6
ByLayer
 10
-18.7000000000000028
 20
123.3000000000000114
 30
0.0
 11
-18.7000000000000028
 21
109.7000000000000171
 31
0.0
  0
LINE
  5
95
100
AcDbEntity
100
AcDbLine
  8
new-keys
 62
5
370
-1
  6
ByLayer
 10
-18.7000000000000028
 20
109.7000000000000171
 30
0.0
 11
-32.2999999999999972
 21
109.7000000000000171
 31
0.0
  0
LINE
  5
96
100
AcDbEntity
100
AcDbLine
  8
new-keys
 62
5
370
-1
  6
ByLayer
 10
-32.2999999999999972
 20
109.7000000000000171
 30
0.0
 11
-32.2999999999999972
 21
123.3000000000000114
 31
0.0
  0
LINE
  5
97
100
AcDbEntity
100
AcDbLine
  8
new-keys
 62
5
370
-1
  6
ByLayer
 10
-13.2999999999999954
 20
123.3000000000000256
 30
0.0
 11
0.2999999999999989
 21
123.3000000000000256
 31
0.0
  0
LINE
  5
98
100
AcDbEntity
100
AcDbLine
  8
new-keys
 62
5
370
-1
  6
ByLayer
 10
0.2999999999999989
 20
123.3000000000000256
 30
0.0
 11
0.2999999999999989
 21
109.7000000000000313
 31
0.0
  0
LINE
  5
99
100
AcDbEntity
100
AcDbLine
  8
new-keys
 62
5
370
-1
  6
ByLayer
 10
0.2999999999999989
 20
109.7000000000000313
 30
0.0
 11
-13.2999999999999954
 21
109.7000000000000313
 31
0.0
  0
LINE
  5
9A
100
AcDbEntity
100
AcDbLine
  8
new-keys
 62
5
370
-1
  6
ByLayer
 10
-13.2999999999999954
 20
109.7000000000000313
 30
0.0
 11
-13.2999999999999954
 21
123.3000000000000256
 31
0.0
  0
LINE
  5
9B
100
AcDbEntity
100
AcDbLine
  8
new-keys
 62
5
370
-1
  6
ByLayer
 10
5.7000000000000046
 20
123.300000000000054
 30
0.0
 11
19.2999999999999972
 21
123.300000000000054
 31
0.0
  0
LINE
  5
9C
100
AcDbEntity
100
AcDbLine
  8
new-keys
 62
5
370
-1
  6
ByLayer
 10
19.2999999999999972
 20
123.300000000000054
 30
0.0
 11
19.2999999999999972
 21
109.7000000000000597
 31
0.0
  0
LINE
  5
9D
100
AcDbEntity
100
AcDbLine
  8
new-keys
 62
5
370
-1
  6
ByLayer
 10
19.2999999999999972
 20
109.7000000000000597
 30
0.0
 11
5.7000000000000046
 21
109.7000000000000597
 31
0.0
  0
LINE
  5
9E
100
AcDbEntity
100
AcDbLine
  8
new-keys
 62
5
370
-1
  6
ByLayer
 10
5.7000000000000046
 20
109.7000000000000597
 30
0.0
 11
5.7000000000000046
 21
123.300000000000054
 31
0.0
  0
LINE
  5
9F
100
AcDbEntity
100
AcDbLine
  8
new-keys
 62
5
370
-1
  6
ByLayer
 10
24.7000000000000028
 20
123.3000000000000398
 30
0.0
 11
38.2999999999999972
 21
123.3000000000000398
 31
0.0
  0
LINE
  5
A0
100
AcDbEntity
100
AcDbLine
  8
new-keys
 62
5
370
-1
  6
ByLayer
 10
38.2999999999999972
 20
123.3000000000000398
 30
0.0
 11
38.2999999999999972
 21
109.7000000000000455
 31
0.0
  0
LINE
  5
A1
100
AcDbEntity
100
AcDbLine
  8
new-keys
 62
5
370
-1
  6
ByLayer
 10
38.2999999999999972
 20
109.7000000000000455
 30
0.0
 11
24.7000000000000028
 21
109.7000000000000455
 31
0.0
  0
LINE
  5
A2
100
AcDbEntity
100
AcDbLine
  8
new-keys
 62
5
370
-1
  6
ByLayer
 10
24.7000000000000028
 20
109.7000000000000455
 30
0.0
 11
24.7000000000000028
 21
123.3000000000000398
 31
0.0
  0
LINE
  5
A3
100
AcDbEntity
100
AcDbLine
  8
new-keys
 62
5
370
-1
  6
ByLayer
 10
43.7000000000000099
 20
123.3000000000000398
 30
0.0
 11
57.3000000000000043
 21
123.3000000000000398
 31
0.0
  0
LINE
  5
A4
100
AcDbEntity
100
AcDbLine
  8
new-keys
 62
5
370
-1
  6
ByLayer
 10
57.3000000000000043
 20
123.3000000000000398
 30
0.0
 11
57.3000000000000043
 21
109.7000000000000455
 31
0.0
  0
LINE
  5
A5
100
AcDbEntity
100
AcDbLine
  8
new-keys
 62
5
370
-1
  6
ByLayer
 10
57.3000000000000043
 20
109.7000000000000455
 30
0.0
 11
43.7000000000000099
 21
109.7000000000000455
 31
0.0
  0
LINE
  5
A6
100
AcDbEntity
100
AcDbLine
  8
new-keys
 62
5
370
-1
  6
ByLayer
 10
43.7000000000000099
 20
109.7000000000000455
 30
0.0
 11
43.7000000000000099
 21
123.3000000000000398
 31
0.0
  0
LINE
  5
A7
100
AcDbEntity
100
AcDbLine
  8
new-keys
 62
5
370
-1
  6
ByLayer
 10
62.7000000000000028
 20
123.3000000000000398
 30
0.0
 11
76.2999999999999972
 21
123.3000000000000398
 31
0.0
  0
LINE
  5
A8
100
AcDbEntity
100
AcDbLine
  8
new-keys
 62
5
370
-1
  6
ByLayer
 10
76.2999999999999972
 20
123.3000000000000398
 30
0.0
 11
76.2999999999999972
 21
109.7000000000000455
 31
0.0
  0
LINE
  5
A9
100
AcDbEntity
100
AcDbLine
  8
new-keys
 62
5
370
-1
  6
ByLayer
 10
76.2999999999999972
 20
109.7000000000000455
 30
0.0
 11
62.7000000000000028
 21
109.7000000000000455
 31
0.0
  0
LINE
  5
AA
100
AcDbEntity
100
AcDbLine
  8
new-keys
 62
5
370
-1
  6
ByLayer
 10
62.7000000000000028
 20
109.7000000000000455
 30
0.0
 11
62.7000000000000028
 21
123.3000000000000398
 31
0.0
  0
LINE
  5
AB
100
AcDbEntity
100
AcDbLine
  8
new-keys
 62
5
370
-1
  6
ByLayer
 10
81.7000000000000171
 20
123.3000000000000398
 30
0.0
 11
95.3000000000000114
 21
123.3000000000000398
 31
0.0
  0
LINE
  5
AC
100
AcDbEntity
100
AcDbLine
  8
new-keys
 62
5
370
-1
  6
ByLayer
 10
95.3000000000000114
 20
123.3000000000000398
 30
0.0
 11
95.3000000000000114
 21
109.7000000000000455
 31
0.0
  0
LINE
  5
AD
100
AcDbEntity
100
AcDbLine
  8
new-keys
 62
5
370
-1
  6
ByLayer
 10
95.3000000000000114
 20
109.7000000000000455
 30
0.0
 11
81.7000000000000171
 21
109.7000000000000455
 31
0.0
  0
LINE
  5
AE
100
AcDbEntity
100
AcDbLine
  8
new-keys
 62
5
370
-1
  6
ByLayer
 10
81.7000000000000171
 20
109.7000000000000455
 30
0.0
 11
81.7000000000000171
 21
123.3000000000000398
 31
0.0
  0
LINE
  5
AF
100
AcDbEntity
100
AcDbLine
  8
new-keys
 62
5
370
-1
  6
ByLayer
 10
100.7000000000000171
 20
123.3000000000000398
 30
0.0
 11
114.3000000000000114
 21
123.3000000000000398
 31
0.0
  0
LINE
  5
B0
100
AcDbEntity
100
AcDbLine
  8
new-keys
 62
5
370
-1
  6
ByLayer
 10
114.3000000000000114
 20
123.3000000000000398
 30
0.0
 11
114.3000000000000114
 21
109.7000000000000455
 31
0.0
  0
LINE
  5
B1
100
AcDbEntity
100
AcDbLine
  8
new-keys
 62
5
370
-1
  6
ByLayer
 10
114.3000000000000114
 20
109.7000000000000455
 30
0.0
 11
100.7000000000000171
 21
109.7000000000000455
 31
0.0
  0
LINE
  5
B2
100
AcDbEntity
100
AcDbLine
  8
new-keys
 62
5
370
-1
  6
ByLayer
 10
100.7000000000000171
 20
109.7000000000000455
 30
0.0
 11
100.7000000000000171
 21
123.3000000000000398
 31
0.0
  0
LINE
  5
B3
100
AcDbEntity
100
AcDbLine
  8
new-keys
 62
5
370
-1
  6
ByLayer
 10
119.7000000000000028
 20
123.3000000000000398
 30
0.0
 11
133.2999999999999829
 21
123.3000000000000398
 31
0.0
  0
LINE
  5
B4
100
AcDbEntity
100
AcDbLine
  8
new-keys
 62
5
370
-1
  6
ByLayer
 10
133.2999999999999829
 20
123.3000000000000398
 30
0.0
 11
133.2999999999999829
 21
109.7000000000000455
 31
0.0
  0
LINE
  5
B5
100
AcDbEntity
100
AcDbLine
  8
new-keys
 62
5
370
-1
  6
ByLayer
 10
133.2999999999999829
 20
109.7000000000000455
 30
0.0
 11
119.7000000000000028
 21
109.7000000000000455
 31
0.0
  0
LINE
  5
B6
100
AcDbEntity
100
AcDbLine
  8
new-keys
 62
5
370
-1
  6
ByLayer
 10
119.7000000000000028
 20
109.7000000000000455
 30
0.0
 11
119.7000000000000028
 21
123.3000000000000398
 31
0.0
  0
LINE
  5
B7
100
AcDbEntity
100
AcDbLine
  8
new-keys
 62
5
370
-1
  6
ByLayer
 10
138.7000000000000171
 20
123.3000000000000398
 30
0.0
 11
152.3000000000000114
 21
123.3000000000000398
 31
0.0
  0
LINE
  5
B8
100
AcDbEntity
100
AcDbLine
  8
new-keys
 62
5
370
-1
  6
ByLayer
 10
152.3000000000000114
 20
123.3000000000000398
 30
0.0
 11
152.3000000000000114
 21
109.7000000000000455
 31
0.0
  0
LINE
  5
B9
100
AcDbEntity
100
AcDbLine
  8
new-keys
 62
5
370
-1
  6
ByLayer
 10
152.3000000000000114
 20
109.7000000000000455
 30
0.0
 11
138.7000000000000171
 21
109.7000000000000455
 31
0.0
  0
LINE
  5
BA
100
AcDbEntity
100
AcDbLine
  8
new-keys
 62
5
370
-1
  6
ByLayer
 10
138.7000000000000171
 20
109.7000000000000455
 30
0.0
 11
138.7000000000000171
 21
123.3000000000000398
 31
0.0
  0
LINE
  5
BB
100
AcDbEntity
100
AcDbLine
  8
new-keys
 62
5
370
-1
  6
ByLayer
 10
157.7000000000000171
 20
123.3000000000000398
 30
0.0
 11
171.3000000000000114
 21
123.3000000000000398
 31
0.0
  0
LINE
  5
BC
100
AcDbEntity
100
AcDbLine
  8
new-keys
 62
5
370
-1
  6
ByLayer
 10
171.3000000000000114
 20
123.3000000000000398
 30
0.0
 11
171.3000000000000114
 21
109.7000000000000455
 31
0.0
  0
LINE
  5
BD
100
AcDbEntity
100
AcDbLine
  8
new-keys
 62
5
370
-1
  6
ByLayer
 10
171.3000000000000114
 20
109.7000000000000455
 30
0.0
 11
157.7000000000000171
 21
109.7000000000000455
 31
0.0
  0
LINE
  5
BE
100
AcDbEntity
100
AcDbLine
  8
new-keys
 62
5
370
-1
  6
ByLayer
 10
157.7000000000000171
 20
109.7000000000000455
 30
0.0
 11
157.7000000000000171
 21
123.3000000000000398
 31
0.0
  0
LINE
  5
BF
100
AcDbEntity
100
AcDbLine
  8
new-keys
 62
5
370
-1
  6
ByLayer
 10
176.7000000000000171
 20
123.3000000000000398
 30
0.0
 11
190.3000000000000114
 21
123.3000000000000398
 31
0.0
  0
LINE
  5
C0
100
AcDbEntity
100
AcDbLine
  8
new-keys
 62
5
370
-1
  6
ByLayer
 10
190.3000000000000114
 20
123.3000000000000398
 30
0.0
 11
190.3000000000000114
 21
109.7000000000000455
 31
0.0
  0
LINE
  5
C1
100
AcDbEntity
100
AcDbLine
  8
new-keys
 62
5
370
-1
  6
ByLayer
 10
190.3000000000000114
 20
109.7000000000000455
 30
0.0
 11
176.7000000000000171
 21
109.7000000000000455
 31
0.0
  0
LINE
  5
C2
100
AcDbEntity
100
AcDbLine
  8
new-keys
 62
5
370
-1
  6
ByLayer
 10
176.7000000000000171
 20
109.7000000000000455
 30
0.0
 11
176.7000000000000171
 21
123.3000000000000398
 31
0.0
  0
LINE
  5
C3
100
AcDbEntity
100
AcDbLine
  8
new-keys
 62
5
370
-1
  6
ByLayer
 10
195.7000000000000171
 20
123.3000000000000256
 30
0.0
 11
209.3000000000000114
 21
123.3000000000000256
 31
0.0
  0
LINE
  5
C4
100
AcDbEntity
100
AcDbLine
  8
new-keys
 62
5
370
-1
  6
ByLayer
 10
209.3000000000000114
 20
123.3000000000000256
 30
0.0
 11
209.3000000000000114
 21
109.7000000000000313
 31
0.0
  0
LINE
  5
C5
100
AcDbEntity
100
AcDbLine
  8
new-keys
 62
5
370
-1
  6
ByLayer
 10
209.3000000000000114
 20
109.7000000000000313
 30
0.0
 11
195.7000000000000171
 21
109.7000000000000313
 31
0.0
  0
LINE
  5
C6
100
AcDbEntity
100
AcDbLine
  8
new-keys
 62
5
370
-1
  6
ByLayer
 10
195.7000000000000171
 20
109.7000000000000313
 30
0.0
 11
195.7000000000000171
 21
123.3000000000000256
 31
0.0
  0
LINE
  5
C7
100
AcDbEntity
100
AcDbLine
  8
new-keys
 62
5
370
-1
  6
ByLayer
 10
214.7000000000000171
 20
123.3000000000000398
 30
0.0
 11
228.3000000000000114
 21
123.3000000000000398
 31
0.0
  0
LINE
  5
C8
100
AcDbEntity
100
AcDbLine
  8
new-keys
 62
5
370
-1
  6
ByLayer
 10
228.3000000000000114
 20
123.3000000000000398
 30
0.0
 11
228.3000000000000114
 21
109.7000000000000455
 31
0.0
  0
LINE
  5
C9
100
AcDbEntity
100
AcDbLine
  8
new-keys
 62
5
370
-1
  6
ByLayer
 10
228.3000000000000114
 20
109.7000000000000455
 30
0.0
 11
214.7000000000000171
 21
109.7000000000000455
 31
0.0
  0
LINE
  5
CA
100
AcDbEntity
100
AcDbLine
  8
new-keys
 62
5
370
-1
  6
ByLayer
 10
214.7000000000000171
 20
109.7000000000000455
 30
0.0
 11
214.7000000000000171
 21
123.3000000000000398
 31
0.0
  0
LINE
  5
CB
100
AcDbEntity
100
AcDbLine
  8
new-keys
 62
5
370
-1
  6
ByLayer
 10
233.7000000000000171
 20
123.3000000000000398
 30
0.0
 11
247.3000000000000114
 21
123.3000000000000398
 31
0.0
  0
LINE
  5
CC
100
AcDbEntity
100
AcDbLine
  8
new-keys
 62
5
370
-1
  6
ByLayer
 10
247.3000000000000114
 20
123.3000000000000398
 30
0.0
 11
247.3000000000000114
 21
109.7000000000000455
 31
0.0
  0
LINE
  5
CD
100
AcDbEntity
100
AcDbLine
  8
new-keys
 62
5
370
-1
  6
ByLayer
 10
247.3000000000000114
 20
109.7000000000000455
 30
0.0
 11
233.7000000000000171
 21
109.7000000000000455
 31
0.0
  0
LINE
  5
CE
100
AcDbEntity
100
AcDbLine
  8
new-keys
 62
5
370
-1
  6
ByLayer
 10
233.7000000000000171
 20
109.7000000000000455
 30
0.0
 11
233.7000000000000171
 21
123.3000000000000398
 31
0.0
  0
LINE
  5
CF
100
AcDbEntity
100
AcDbLine
  8
new-keys
 62
5
370
-1
  6
ByLayer
 10
229.4500000000000171
 20
104.3000000000000256
 30
0.0
 11
243.0500000000000114
 21
104.3000000000000256
 31
0.0
  0
LINE
  5
D0
100
AcDbEntity
100
AcDbLine
  8
new-keys
 62
5
370
-1
  6
ByLayer
 10
243.0500000000000114
 20
104.3000000000000256
 30
0.0
 11
243.0500000000000114
 21
90.7000000000000313
 31
0.0
  0
LINE
  5
D1
100
AcDbEntity
100
AcDbLine
  8
new-keys
 62
5
370
-1
  6
ByLayer
 10
243.0500000000000114
 20
90.7000000000000313
 30
0.0
 11
229.4500000000000171
 21
90.7000000000000313
 31
0.0
  0
LINE
  5
D2
100
AcDbEntity
100
AcDbLine
  8
new-keys
 62
5
370
-1
  6
ByLayer
 10
229.4500000000000171
 20
90.7000000000000313
 30
0.0
 11
229.4500000000000171
 21
104.3000000000000256
 31
0.0
  0
LINE
  5
D3
100
AcDbEntity
100
AcDbLine
  8
new-keys
 62
5
370
-1
  6
ByLayer
 10
206.2000000000000171
 20
104.3000000000000256
 30
0.0
 11
219.8000000000000114
 21
104.3000000000000256
 31
0.0
  0
LINE
  5
D4
100
AcDbEntity
100
AcDbLine
  8
new-keys
 62
5
370
-1
  6
ByLayer
 10
219.8000000000000114
 20
104.3000000000000256
 30
0.0
 11
219.8000000000000114
 21
90.7000000000000313
 31
0.0
  0
LINE
  5
D5
100
AcDbEntity
100
AcDbLine
  8
new-keys
 62
5
370
-1
  6
ByLayer
 10
219.8000000000000114
 20
90.7000000000000313
 30
0.0
 11
206.2000000000000171
 21
90.7000000000000313
 31
0.0
  0
LINE
  5
D6
100
AcDbEntity
100
AcDbLine
  8
new-keys
 62
5
370
-1
  6
ByLayer
 10
206.2000000000000171
 20
90.7000000000000313
 30
0.0
 11
206.2000000000000171
 21
104.3000000000000256
 31
0.0
  0
LINE
  5
D7
100
AcDbEntity
100
AcDbLine
  8
new-keys
 62
5
370
-1
  6
ByLayer
 10
187.2000000000000171
 20
104.3000000000000398
 30
0.0
 11
200.8000000000000114
 21
104.3000000000000398
 31
0.0
  0
LINE
  5
D8
100
AcDbEntity
100
AcDbLine
  8
new-keys
 62
5
370
-1
  6
ByLayer
 10
200.8000000000000114
 20
104.3000000000000398
 30
0.0
 11
200.8000000000000114
 21
90.7000000000000455
 31
0.0
  0
LINE
  5
D9
100
AcDbEntity
100
AcDbLine
  8
new-keys
 62
5
370
-1
  6
ByLayer
 10
200.8000000000000114
 20
90.7000000000000455
 30
0.0
 11
187.2000000000000171
 21
90.7000000000000455
 31
0.0
  0
LINE
  5
DA
100
AcDbEntity
100
AcDbLine
  8
new-keys
 62
5
370
-1
  6
ByLayer
 10
187.2000000000000171
 20
90.7000000000000455
 30
0.0
 11
187.2000000000000171
 21
104.3000000000000398
 31
0.0
  0
LINE
  5
DB
100
AcDbEntity
100
AcDbLine
  8
new-keys
 62
5
370
-1
  6
ByLayer
 10
168.2000000000000171
 20
104.3000000000000398
 30
0.0
 11
181.8000000000000114
 21
104.3000000000000398
 31
0.0
  0
LINE
  5
DC
100
AcDbEntity
100
AcDbLine
  8
new-keys
 62
5
370
-1
  6
ByLayer
 10
181.8000000000000114
 20
104.3000000000000398
 30
0.0
 11
181.8000000000000114
 21
90.7000000000000455
 31
0.0
  0
LINE
  5
DD
100
AcDbEntity
100
AcDbLine
  8
new-keys
 62
5
370
-1
  6
ByLayer
 10
181.8000000000000114
 20
90.7000000000000455
 30
0.0
 11
168.2000000000000171
 21
90.7000000000000455
 31
0.0
  0
LINE
  5
DE
100
AcDbEntity
100
AcDbLine
  8
new-keys
 62
5
370
-1
  6
ByLayer
 10
168.2000000000000171
 20
90.7000000000000455
 30
0.0
 11
168.2000000000000171
 21
104.3000000000000398
 31
0.0
  0
LINE
  5
DF
100
AcDbEntity
100
AcDbLine
  8
new-keys
 62
5
370
-1
  6
ByLayer
 10
149.2000000000000171
 20
104.3000000000000398
 30
0.0
 11
162.8000000000000114
 21
104.3000000000000398
 31
0.0
  0
LINE
  5
E0
100
AcDbEntity
100
AcDbLine
  8
new-keys
 62
5
370
-1
  6
ByLayer
 10
162.8000000000000114
 20
104.3000000000000398
 30
0.0
 11
162.8000000000000114
 21
90.7000000000000455
 31
0.0
  0
LINE
  5
E1
100
AcDbEntity
100
AcDbLine
  8
new-keys
 62
5
370
-1
  6
ByLayer
 10
162.8000000000000114
 20
90.7000000000000455
 30
0.0
 11
149.2000000000000171
 21
90.7000000000000455
 31
0.0
  0
LINE
  5
E2
100
AcDbEntity
100
AcDbLine
  8
new-keys
 62
5
370
-1
  6
ByLayer
 10
149.2000000000000171
 20
90.7000000000000455
 30
0.0
 11
149.2000000000000171
 21
104.3000000000000398
 31
0.0
  0
LINE
  5
E3
100
AcDbEntity
100
AcDbLine
  8
new-keys
 62
5
370
-1
  6
ByLayer
 10
130.2000000000000171
 20
104.3000000000000398
 30
0.0
 11
143.8000000000000114
 21
104.3000000000000398
 31
0.0
  0
LINE
  5
E4
100
AcDbEntity
100
AcDbLine
  8
new-keys
 62
5
370
-1
  6
ByLayer
 10
143.8000000000000114
 20
104.3000000000000398
 30
0.0
 11
143.8000000000000114
 21
90.7000000000000455
 31
0.0
  0
LINE
  5
E5
100
AcDbEntity
100
AcDbLine
  8
new-keys
 62
5
370
-1
  6
ByLayer
 10
143.8000000000000114
 20
90.7000000000000455
 30
0.0
 11
130.2000000000000171
 21
90.7000000000000455
 31
0.0
  0
LINE
  5
E6
100
AcDbEntity
100
AcDbLine
  8
new-keys
 62
5
370
-1
  6
ByLayer
 10
130.2000000000000171
 20
90.7000000000000455
 30
0.0
 11
130.2000000000000171
 21
104.3000000000000398
 31
0.0
  0
LINE
  5
E7
100
AcDbEntity
100
AcDbLine
  8
new-keys
 62
5
370
-1
  6
ByLayer
 10
111.2000000000000171
 20
104.3000000000000398
 30
0.0
 11
124.8000000000000114
 21
104.3000000000000398
 31
0.0
  0
LINE
  5
E8
100
AcDbEntity
100
AcDbLine
  8
new-keys
 62
5
370
-1
  6
ByLayer
 10
124.8000000000000114
 20
104.3000000000000398
 30
0.0
 11
124.8000000000000114
 21
90.7000000000000455
 31
0.0
  0
LINE
  5
E9
100
AcDbEntity
100
AcDbLine
  8
new-keys
 62
5
370
-1
  6
ByLayer
 10
124.8000000000000114
 20
90.7000000000000455
 30
0.0
 11
111.2000000000000171
 21
90.7000000000000455
 31
0.0
  0
LINE
  5
EA
100
AcDbEntity
100
AcDbLine
  8
new-keys
 62
5
370
-1
  6
ByLayer
 10
111.2000000000000171
 20
90.7000000000000455
 30
0.0
 11
111.2000000000000171
 21
104.3000000000000398
 31
0.0
  0
LINE
  5
EB
100
AcDbEntity
100
AcDbLine
  8
new-keys
 62
5
370
-1
  6
ByLayer
 10
92.2000000000000171
 20
104.3000000000000398
 30
0.0
 11
105.8000000000000114
 21
104.3000000000000398
 31
0.0
  0
LINE
  5
EC
100
AcDbEntity
100
AcDbLine
  8
new-keys
 62
5
370
-1
  6
ByLayer
 10
105.8000000000000114
 20
104.3000000000000398
 30
0.0
 11
105.8000000000000114
 21
90.7000000000000455
 31
0.0
  0
LINE
  5
ED
100
AcDbEntity
100
AcDbLine
  8
new-keys
 62
5
370
-1
  6
ByLayer
 10
105.8000000000000114
 20
90.7000000000000455
 30
0.0
 11
92.2000000000000171
 21
90.7000000000000455
 31
0.0
  0
LINE
  5
EE
100
AcDbEntity
100
AcDbLine
  8
new-keys
 62
5
370
-1
  6
ByLayer
 10
92.2000000000000171
 20
90.7000000000000455
 30
0.0
 11
92.2000000000000171
 21
104.3000000000000398
 31
0.0
  0
LINE
  5
EF
100
AcDbEntity
100
AcDbLine
  8
new-keys
 62
5
370
-1
  6
ByLayer
 10
73.2000000000000028
 20
104.3000000000000256
 30
0.0
 11
86.7999999999999972
 21
104.3000000000000256
 31
0.0
  0
LINE
  5
F0
100
AcDbEntity
100
AcDbLine
  8
new-keys
 62
5
370
-1
  6
ByLayer
 10
86.7999999999999972
 20
104.3000000000000256
 30
0.0
 11
86.7999999999999972
 21
90.7000000000000313
 31
0.0
  0
LINE
  5
F1
100
AcDbEntity
100
AcDbLine
  8
new-keys
 62
5
370
-1
  6
ByLayer
 10
86.7999999999999972
 20
90.7000000000000313
 30
0.0
 11
73.2000000000000028
 21
90.7000000000000313
 31
0.0
  0
LINE
  5
F2
100
AcDbEntity
100
AcDbLine
  8
new-keys
 62
5
370
-1
  6
ByLayer
 10
73.2000000000000028
 20
90.7000000000000313
 30
0.0
 11
73.2000000000000028
 21
104.3000000000000256
 31
0.0
  0
LINE
  5
F3
100
AcDbEntity
100
AcDbLine
  8
new-keys
 62
5
370
-1
  6
ByLayer
 10
54.2000000000000028
 20
104.3000000000000256
 30
0.0
 11
67.7999999999999972
 21
104.3000000000000256
 31
0.0
  0
LINE
  5
F4
100
AcDbEntity
100
AcDbLine
  8
new-keys
 62
5
370
-1
  6
ByLayer
 10
67.7999999999999972
 20
104.3000000000000256
 30
0.0
 11
67.7999999999999972
 21
90.7000000000000313
 31
0.0
  0
LINE
  5
F5
100
AcDbEntity
100
AcDbLine
  8
new-keys
 62
5
370
-1
  6
ByLayer
 10
67.7999999999999972
 20
90.7000000000000313
 30
0.0
 11
54.2000000000000028
 21
90.7000000000000313
 31
0.0
  0
LINE
  5
F6
100
AcDbEntity
100
AcDbLine
  8
new-keys
 62
5
370
-1
  6
ByLayer
 10
54.2000000000000028
 20
90.7000000000000313
 30
0.0
 11
54.2000000000000028
 21
104.3000000000000256
 31
0.0
  0
LINE
  5
F7
100
AcDbEntity
100
AcDbLine
  8
new-keys
 62
5
370
-1
  6
ByLayer
 10
35.2000000000000028
 20
104.3000000000000398
 30
0.0
 11
48.7999999999999972
 21
104.3000000000000398
 31
0.0
  0
LINE
  5
F8
100
AcDbEntity
100
AcDbLine
  8
new-keys
 62
5
370
-1
  6
ByLayer
 10
48.7999999999999972
 20
104.3000000000000398
 30
0.0
 11
48.7999999999999972
 21
90.7000000000000455
 31
0.0
  0
LINE
  5
F9
100
AcDbEntity
100
AcDbLine
  8
new-keys
 62
5
370
-1
  6
ByLayer
 10
48.7999999999999972
 20
90.7000000000000455
 30
0.0
 11
35.2000000000000028
 21
90.7000000000000455
 31
0.0
  0
LINE
  5
FA
100
AcDbEntity
100
AcDbLine
  8
new-keys
 62
5
370
-1
  6
ByLayer
 10
35.2000000000000028
 20
90.7000000000000455
 30
0.0
 11
35.2000000000000028
 21
104.3000000000000398
 31
0.0
  0
LINE
  5
FB
100
AcDbEntity
100
AcDbLine
  8
new-keys
 62
5
370
-1
  6
ByLayer
 10
16.2000000000000028
 20
104.3000000000000398
 30
0.0
 11
29.7999999999999972
 21
104.3000000000000398
 31
0.0
  0
LINE
  5
FC
100
AcDbEntity
100
AcDbLine
  8
new-keys
 62
5
370
-1
  6
ByLayer
 10
29.7999999999999972
 20
104.3000000000000398
 30
0.0
 11
29.7999999999999972
 21
90.7000000000000455
 31
0.0
  0
LINE
  5
FD
100
AcDbEntity
100
AcDbLine
  8
new-keys
 62
5
370
-1
  6
ByLayer
 10
29.7999999999999972
 20
90.7000000000000455
 30
0.0
 11
16.2000000000000028
 21
90.7000000000000455
 31
0.0
  0
LINE
  5
FE
100
AcDbEntity
100
AcDbLine
  8
new-keys
 62
5
370
-1
  6
ByLayer
 10
16.2000000000000028
 20
90.7000000000000455
 30
0.0
 11
16.2000000000000028
 21
104.3000000000000398
 31
0.0
  0
LINE
  5
FF
100
AcDbEntity
100
AcDbLine
  8
new-keys
 62
5
370
-1
  6
ByLayer
 10
-2.7999999999999985
 20
104.3000000000000398
 30
0.0
 11
10.7999999999999954
 21
104.3000000000000398
 31
0.0
  0
LINE
  5
100
100
AcDbEntity
100
AcDbLine
  8
new-keys
 62
5
370
-1
  6
ByLayer
 10
10.7999999999999954
 20
104.3000000000000398
 30
0.0
 11
10.7999999999999954
 21
90.7000000000000455
 31
0.0
  0
LINE
  5
101
100
AcDbEntity
100
AcDbLine
  8
new-keys
 62
5
370
-1
  6
ByLayer
 10
10.7999999999999954
 20
90.7000000000000455
 30
0.0
 11
-2.7999999999999985
 21
90.7000000000000455
 31
0.0
  0
LINE
  5
102
100
AcDbEntity
100
AcDbLine
  8
new-keys
 62
5
370
-1
  6
ByLayer
 10
-2.7999999999999985
 20
90.7000000000000455
 30
0.0
 11
-2.7999999999999985
 21
104.3000000000000398
 31
0.0
  0
LINE
  5
103
100
AcDbEntity
100
AcDbLine
  8
new-keys
 62
5
370
-1
  6
ByLayer
 10
-27.0499999999999972
 20
104.3000000000000256
 30
0.0
 11
-13.4500000000000046
 21
104.3000000000000256
 31
0.0
  0
LINE
  5
104
100
AcDbEntity
100
AcDbLine
  8
new-keys
 62
5
370
-1
  6
ByLayer
 10
-13.4500000000000046
 20
104.3000000000000256
 30
0.0
 11
-13.4500000000000046
 21
90.7000000000000313
 31
0.0
  0
LINE
  5
105
100
AcDbEntity
100
AcDbLine
  8
new-keys
 62
5
370
-1
  6
ByLayer
 10
-13.4500000000000046
 20
90.7000000000000313
 30
0.0
 11
-27.0499999999999972
 21
90.7000000000000313
 31
0.0
  0
LINE
  5
106
100
AcDbEntity
100
AcDbLine
  8
new-keys
 62
5
370
-1
  6
ByLayer
 10
-27.0499999999999972
 20
90.7000000000000313
 30
0.0
 11
-27.0499999999999972
 21
104.3000000000000256
 31
0.0
  0
LINE
  5
107
100
AcDbEntity
100
AcDbLine
  8
new-keys
 62
5
370
-1
  6
ByLayer
 10
-24.6499999999999986
 20
85.3000000000000256
 30
0.0
 11
-11.050000000000006
 21
85.3000000000000256
 31
0.0
  0
LINE
  5
108
100
AcDbEntity
100
AcDbLine
  8
new-keys
 62
5
370
-1
  6
ByLayer
 10
-11.050000000000006
 20
85.3000000000000256
 30
0.0
 11
-11.050000000000006
 21
71.7000000000000313
 31
0.0
  0
LINE
  5
109
100
AcDbEntity
100
AcDbLine
  8
new-keys
 62
5
370
-1
  6
ByLayer
 10
-11.050000000000006
 20
71.7000000000000313
 30
0.0
 11
-24.6499999999999986
 21
71.7000000000000313
 31
0.0
  0
LINE
  5
10A
100
AcDbEntity
100
AcDbLine
  8
new-keys
 62
5
370
-1
  6
ByLayer
 10
-24.6499999999999986
 20
71.7000000000000313
 30
0.0
 11
-24.6499999999999986
 21
85.3000000000000256
 31
0.0
  0
LINE
  5
10B
100
AcDbEntity
100
AcDbLine
  8
new-keys
 62
5
370
-1
  6
ByLayer
 10
2.0000000000000013
 20
85.3000000000000256
 30
0.0
 11
15.5999999999999961
 21
85.3000000000000256
 31
0.0
  0
LINE
  5
10C
100
AcDbEntity
100
AcDbLine
  8
new-keys
 62
5
370
-1
  6
ByLayer
 10
15.5999999999999961
 20
85.3000000000000256
 30
0.0
 11
15.5999999999999961
 21
71.7000000000000313
 31
0.0
  0
LINE
  5
10D
100
AcDbEntity
100
AcDbLine
  8
new-keys
 62
5
370
-1
  6
ByLayer
 10
15.5999999999999961
 20
71.7000000000000313
 30
0.0
 11
2.0000000000000013
 21
71.7000000000000313
 31
0.0
  0
LINE
  5
10E
100
AcDbEntity
100
AcDbLine
  8
new-keys
 62
5
370
-1
  6
ByLayer
 10
2.0000000000000013
 20
71.7000000000000313
 30
0.0
 11
2.0000000000000013
 21
85.3000000000000256
 31
0.0
  0
LINE
  5
10F
100
AcDbEntity
100
AcDbLine
  8
new-keys
 62
5
370
-1
  6
ByLayer
 10
21.0
 20
85.3000000000000256
 30
0.0
 11
34.5999999999999943
 21
85.3000000000000256
 31
0.0
  0
LINE
  5
110
100
AcDbEntity
100
AcDbLine
  8
new-keys
 62
5
370
-1
  6
ByLayer
 10
34.5999999999999943
 20
85.3000000000000256
 30
0.0
 11
34.5999999999999943
 21
71.7000000000000313
 31
0.0
  0
LINE
  5
111
100
AcDbEntity
100
AcDbLine
  8
new-keys
 62
5
370
-1
  6
ByLayer
 10
34.5999999999999943
 20
71.7000000000000313
 30
0.0
 11
21.0
 21
71.7000000000000313
 31
0.0
  0
LINE
  5
112
100
AcDbEntity
100
AcDbLine
  8
new-keys
 62
5
370
-1
  6
ByLayer
 10
21.0
 20
71.7000000000000313
 30
0.0
 11
21.0
 21
85.3000000000000256
 31
0.0
  0
LINE
  5
113
100
AcDbEntity
100
AcDbLine
  8
new-keys
 62
5
370
-1
  6
ByLayer
 10
40.0000000000000071
 20
85.3000000000000398
 30
0.0
 11
53.6000000000000014
 21
85.3000000000000398
 31
0.0
  0
LINE
  5
114
100
AcDbEntity
100
AcDbLine
  8
new-keys
 62
5
370
-1
  6
ByLayer
 10
53.6000000000000014
 20
85.3000000000000398
 30
0.0
 11
53.6000000000000014
 21
71.7000000000000455
 31
0.0
  0
LINE
  5
115
100
AcDbEntity
100
AcDbLine
  8
new-keys
 62
5
370
-1
  6
ByLayer
 10
53.6000000000000014
 20
71.7000000000000455
 30
0.0
 11
40.0000000000000071
 21
71.7000000000000455
 31
0.0
  0
LINE
  5
116
100
AcDbEntity
100
AcDbLine
  8
new-keys
 62
5
370
-1
  6
ByLayer
 10
40.0000000000000071
 20
71.7000000000000455
 30
0.0
 11
40.0000000000000071
 21
85.3000000000000398
 31
0.0
  0
LINE
  5
117
100
AcDbEntity
100
AcDbLine
  8
new-keys
 62
5
370
-1
  6
ByLayer
 10
59.0000000000000071
 20
85.3000000000000398
 30
0.0
 11
72.5999999999999943
 21
85.3000000000000398
 31
0.0
  0
LINE
  5
118
100
AcDbEntity
100
AcDbLine
  8
new-keys
 62
5
370
-1
  6
ByLayer
 10
72.5999999999999943
 20
85.3000000000000398
 30
0.0
 11
72.5999999999999943
 21
71.7000000000000455
 31
0.0
  0
LINE
  5
119
100
AcDbEntity
100
AcDbLine
  8
new-keys
 62
5
370
-1
  6
ByLayer
 10
72.5999999999999943
 20
71.7000000000000455
 30
0.0
 11
59.0000000000000071
 21
71.7000000000000455
 31
0.0
  0
LINE
  5
11A
100
AcDbEntity
100
AcDbLine
  8
new-keys
 62
5
370
-1
  6
ByLayer
 10
59.0000000000000071
 20
71.7000000000000455
 30
0.0
 11
59.0000000000000071
 21
85.3000000000000398
 31
0.0
  0
LINE
  5
11B
100
AcDbEntity
100
AcDbLine
  8
new-keys
 62
5
370
-1
  6
ByLayer
 10
78.0000000000000142
 20
85.3000000000000398
 30
0.0
 11
91.6000000000000085
 21
85.3000000000000398
 31
0.0
  0
LINE
  5
11C
100
AcDbEntity
100
AcDbLine
  8
new-keys
 62
5
370
-1
  6
ByLayer
 10
91.6000000000000085
 20
85.3000000000000398
 30
0.0
 11
91.6000000000000085
 21
71.7000000000000455
 31
0.0
  0
LINE
  5
11D
100
AcDbEntity
100
AcDbLine
  8
new-keys
 62
5
370
-1
  6
ByLayer
 10
91.6000000000000085
 20
71.7000000000000455
 30
0.0
 11
78.0000000000000142
 21
71.7000000000000455
 31
0.0
  0
LINE
  5
11E
100
AcDbEntity
100
AcDbLine
  8
new-keys
 62
5
370
-1
  6
ByLayer
 10
78.0000000000000142
 20
71.7000000000000455
 30
0.0
 11
78.0000000000000142
 21
85.3000000000000398
 31
0.0
  0
LINE
  5
11F
100
AcDbEntity
100
AcDbLine
  8
new-keys
 62
5
370
-1
  6
ByLayer
 10
97.0000000000000142
 20
85.3000000000000398
 30
0.0
 11
110.6000000000000085
 21
85.3000000000000398
 31
0.0
  0
LINE
  5
120
100
AcDbEntity
100
AcDbLine
  8
new-keys
 62
5
370
-1
  6
ByLayer
 10
110.6000000000000085
 20
85.3000000000000398
 30
0.0
 11
110.6000000000000085
 21
71.7000000000000455
 31
0.0
  0
LINE
  5
121
100
AcDbEntity
100
AcDbLine
  8
new-keys
 62
5
370
-1
  6
ByLayer
 10
110.6000000000000085
 20
71.7000000000000455
 30
0.0
 11
97.0000000000000142
 21
71.7000000000000455
 31
0.0
  0
LINE
  5
122
100
AcDbEntity
100
AcDbLine
  8
new-keys
 62
5
370
-1
  6
ByLayer
 10
97.0000000000000142
 20
71.7000000000000455
 30
0.0
 11
97.0000000000000142
 21
85.3000000000000398
 31
0.0
  0
LINE
  5
123
100
AcDbEntity
100
AcDbLine
  8
new-keys
 62
5
370
-1
  6
ByLayer
 10
116.0000000000000142
 20
85.3000000000000256
 30
0.0
 11
129.5999999999999943
 21
85.3000000000000256
 31
0.0
  0
LINE
  5
124
100
AcDbEntity
100
AcDbLine
  8
new-keys
 62
5
370
-1
  6
ByLayer
 10
129.5999999999999943
 20
85.3000000000000256
 30
0.0
 11
129.5999999999999943
 21
71.7000000000000313
 31
0.0
  0
LINE
  5
125
100
AcDbEntity
100
AcDbLine
  8
new-keys
 62
5
370
-1
  6
ByLayer
 10
129.5999999999999943
 20
71.7000000000000313
 30
0.0
 11
116.0000000000000142
 21
71.7000000000000313
 31
0.0
  0
LINE
  5
126
100
AcDbEntity
100
AcDbLine
  8
new-keys
 62
5
370
-1
  6
ByLayer
 10
116.0000000000000142
 20
71.7000000000000313
 30
0.0
 11
116.0000000000000142
 21
85.3000000000000256
 31
0.0
  0
LINE
  5
127
100
AcDbEntity
100
AcDbLine
  8
new-keys
 62
5
370
-1
  6
ByLayer
 10
135.0000000000000284
 20
85.3000000000000398
 30
0.0
 11
148.6000000000000227
 21
85.3000000000000398
 31
0.0
  0
LINE
  5
128
100
AcDbEntity
100
AcDbLine
  8
new-keys
 62
5
370
-1
  6
ByLayer
 10
148.6000000000000227
 20
85.3000000000000398
 30
0.0
 11
148.6000000000000227
 21
71.7000000000000455
 31
0.0
  0
LINE
  5
129
100
AcDbEntity
100
AcDbLine
  8
new-keys
 62
5
370
-1
  6
ByLayer
 10
148.6000000000000227
 20
71.7000000000000455
 30
0.0
 11
135.0000000000000284
 21
71.7000000000000455
 31
0.0
  0
LINE
  5
12A
100
AcDbEntity
100
AcDbLine
  8
new-keys
 62
5
370
-1
  6
ByLayer
 10
135.0000000000000284
 20
71.7000000000000455
 30
0.0
 11
135.0000000000000284
 21
85.3000000000000398
 31
0.0
  0
LINE
  5
12B
100
AcDbEntity
100
AcDbLine
  8
new-keys
 62
5
370
-1
  6
ByLayer
 10
154.0000000000000284
 20
85.3000000000000398
 30
0.0
 11
167.6000000000000227
 21
85.3000000000000398
 31
0.0
  0
LINE
  5
12C
100
AcDbEntity
100
AcDbLine
  8
new-keys
 62
5
370
-1
  6
ByLayer
 10
167.6000000000000227
 20
85.3000000000000398
 30
0.0
 11
167.6000000000000227
 21
71.7000000000000455
 31
0.0
  0
LINE
  5
12D
100
AcDbEntity
100
AcDbLine
  8
new-keys
 62
5
370
-1
  6
ByLayer
 10
167.6000000000000227
 20
71.7000000000000455
 30
0.0
 11
154.0000000000000284
 21
71.7000000000000455
 31
0.0
  0
LINE
  5
12E
100
AcDbEntity
100
AcDbLine
  8
new-keys
 62
5
370
-1
  6
ByLayer
 10
154.0000000000000284
 20
71.7000000000000455
 30
0.0
 11
154.0000000000000284
 21
85.3000000000000398
 31
0.0
  0
LINE
  5
12F
100
AcDbEntity
100
AcDbLine
  8
new-keys
 62
5
370
-1
  6
ByLayer
 10
173.0000000000000284
 20
85.3000000000000398
 30
0.0
 11
186.6000000000000227
 21
85.3000000000000398
 31
0.0
  0
LINE
  5
130
100
AcDbEntity
100
AcDbLine
  8
new-keys
 62
5
370
-1
  6
ByLayer
 10
186.6000000000000227
 20
85.3000000000000398
 30
0.0
 11
186.6000000000000227
 21
71.7000000000000455
 31
0.0
  0
LINE
  5
131
100
AcDbEntity
100
AcDbLine
  8
new-keys
 62
5
370
-1
  6
ByLayer
 10
186.6000000000000227
 20
71.7000000000000455
 30
0.0
 11
173.0000000000000284
 21
71.7000000000000455
 31
0.0
  0
LINE
  5
132
100
AcDbEntity
100
AcDbLine
  8
new-keys
 62
5
370
-1
  6
ByLayer
 10
173.0000000000000284
 20
71.7000000000000455
 30
0.0
 11
173.0000000000000284
 21
85.3000000000000398
 31
0.0
  0
LINE
  5
133
100
AcDbEntity
100
AcDbLine
  8
new-keys
 62
5
370
-1
  6
ByLayer
 10
192.0000000000000284
 20
85.3000000000000256
 30
0.0
 11
205.6000000000000227
 21
85.3000000000000256
 31
0.0
  0
LINE
  5
134
100
AcDbEntity
100
AcDbLine
  8
new-keys
 62
5
370
-1
  6
ByLayer
 10
205.6000000000000227
 20
85.3000000000000256
 30
0.0
 11
205.6000000000000227
 21
71.7000000000000313
 31
0.0
  0
LINE
  5
135
100
AcDbEntity
100
AcDbLine
  8
new-keys
 62
5
370
-1
  6
ByLayer
 10
205.6000000000000227
 20
71.7000000000000313
 30
0.0
 11
192.0000000000000284
 21
71.7000000000000313
 31
0.0
  0
LINE
  5
136
100
AcDbEntity
100
AcDbLine
  8
new-keys
 62
5
370
-1
  6
ByLayer
 10
192.0000000000000284
 20
71.7000000000000313
 30
0.0
 11
192.0000000000000284
 21
85.3000000000000256
 31
0.0
  0
LINE
  5
137
100
AcDbEntity
100
AcDbLine
  8
new-keys
 62
5
370
-1
  6
ByLayer
 10
223.6000000000000512
 20
85.3000000000000398
 30
0.0
 11
237.2000000000000455
 21
85.3000000000000398
 31
0.0
  0
LINE
  5
138
100
AcDbEntity
100
AcDbLine
  8
new-keys
 62
5
370
-1
  6
ByLayer
 10
237.2000000000000455
 20
85.3000000000000398
 30
0.0
 11
237.2000000000000455
 21
71.7000000000000455
 31
0.0
  0
LINE
  5
139
100
AcDbEntity
100
AcDbLine
  8
new-keys
 62
5
370
-1
  6
ByLayer
 10
237.2000000000000455
 20
71.7000000000000455
 30
0.0
 11
223.6000000000000512
 21
71.7000000000000455
 31
0.0
  0
LINE
  5
13A
100
AcDbEntity
100
AcDbLine
  8
new-keys
 62
5
370
-1
  6
ByLayer
 10
223.6000000000000512
 20
71.7000000000000455
 30
0.0
 11
223.6000000000000512
 21
85.3000000000000398
 31
0.0
  0
LINE
  5
13B
100
AcDbEntity
100
AcDbLine
  8
new-keys
 62
5
370
-1
  6
ByLayer
 10
182.7000000000000171
 20
66.3000000000000398
 30
0.0
 11
196.3000000000000114
 21
66.3000000000000398
 31
0.0
  0
LINE
  5
13C
100
AcDbEntity
100
AcDbLine
  8
new-keys
 62
5
370
-1
  6
ByLayer
 10
196.3000000000000114
 20
66.3000000000000398
 30
0.0
 11
196.3000000000000114
 21
52.7000000000000455
 31
0.0
  0
LINE
  5
13D
100
AcDbEntity
100
AcDbLine
  8
new-keys
 62
5
370
-1
  6
ByLayer
 10
196.3000000000000114
 20
52.7000000000000455
 30
0.0
 11
182.7000000000000171
 21
52.7000000000000455
 31
0.0
  0
LINE
  5
13E
100
AcDbEntity
100
AcDbLine
  8
new-keys
 62
5
370
-1
  6
ByLayer
 10
182.7000000000000171
 20
52.7000000000000455
 30
0.0
 11
182.7000000000000171
 21
66.3000000000000398
 31
0.0
  0
LINE
  5
13F
100
AcDbEntity
100
AcDbLine
  8
new-keys
 62
5
370
-1
  6
ByLayer
 10
163.7000000000000171
 20
66.3000000000000256
 30
0.0
 11
177.3000000000000114
 21
66.3000000000000256
 31
0.0
  0
LINE
  5
140
100
AcDbEntity
100
AcDbLine
  8
new-keys
 62
5
370
-1
  6
ByLayer
 10
177.3000000000000114
 20
66.3000000000000256
 30
0.0
 11
177.3000000000000114
 21
52.7000000000000313
 31
0.0
  0
LINE
  5
141
100
AcDbEntity
100
AcDbLine
  8
new-keys
 62
5
370
-1
  6
ByLayer
 10
177.3000000000000114
 20
52.7000000000000313
 30
0.0
 11
163.7000000000000171
 21
52.7000000000000313
 31
0.0
  0
LINE
  5
142
100
AcDbEntity
100
AcDbLine
  8
new-keys
 62
5
370
-1
  6
ByLayer
 10
163.7000000000000171
 20
52.7000000000000313
 30
0.0
 11
163.7000000000000171
 21
66.3000000000000256
 31
0.0
  0
LINE
  5
143
100
AcDbEntity
100
AcDbLine
  8
new-keys
 62
5
370
-1
  6
ByLayer
 10
144.7000000000000171
 20
66.3000000000000256
 30
0.0
 11
158.3000000000000114
 21
66.3000000000000256
 31
0.0
  0
LINE
  5
144
100
AcDbEntity
100
AcDbLine
  8
new-keys
 62
5
370
-1
  6
ByLayer
 10
158.3000000000000114
 20
66.3000000000000256
 30
0.0
 11
158.3000000000000114
 21
52.7000000000000313
 31
0.0
  0
LINE
  5
145
100
AcDbEntity
100
AcDbLine
  8
new-keys
 62
5
370
-1
  6
ByLayer
 10
158.3000000000000114
 20
52.7000000000000313
 30
0.0
 11
144.7000000000000171
 21
52.7000000000000313
 31
0.0
  0
LINE
  5
146
100
AcDbEntity
100
AcDbLine
  8
new-keys
 62
5
370
-1
  6
ByLayer
 10
144.7000000000000171
 20
52.7000000000000313
 30
0.0
 11
144.7000000000000171
 21
66.3000000000000256
 31
0.0
  0
LINE
  5
147
100
AcDbEntity
100
AcDbLine
  8
new-keys
 62
5
370
-1
  6
ByLayer
 10
125.7000000000000028
 20
66.3000000000000256
 30
0.0
 11
139.2999999999999829
 21
66.3000000000000256
 31
0.0
  0
LINE
  5
148
100
AcDbEntity
100
AcDbLine
  8
new-keys
 62
5
370
-1
  6
ByLayer
 10
139.2999999999999829
 20
66.3000000000000256
 30
0.0
 11
139.2999999999999829
 21
52.7000000000000313
 31
0.0
  0
LINE
  5
149
100
AcDbEntity
100
AcDbLine
  8
new-keys
 62
5
370
-1
  6
ByLayer
 10
139.2999999999999829
 20
52.7000000000000313
 30
0.0
 11
125.7000000000000028
 21
52.7000000000000313
 31
0.0
  0
LINE
  5
14A
100
AcDbEntity
100
AcDbLine
  8
new-keys
 62
5
370
-1
  6
ByLayer
 10
125.7000000000000028
 20
52.7000000000000313
 30
0.0
 11
125.7000000000000028
 21
66.3000000000000256
 31
0.0
  0
LINE
  5
14B
100
AcDbEntity
100
AcDbLine
  8
new-keys
 62
5
370
-1
  6
ByLayer
 10
106.7000000000000171
 20
66.3000000000000256
 30
0.0
 11
120.3000000000000114
 21
66.3000000000000256
 31
0.0
  0
LINE
  5
14C
100
AcDbEntity
100
AcDbLine
  8
new-keys
 62
5
370
-1
  6
ByLayer
 10
120.3000000000000114
 20
66.3000000000000256
 30
0.0
 11
120.3000000000000114
 21
52.7000000000000313
 31
0.0
  0
LINE
  5
14D
100
AcDbEntity
100
AcDbLine
  8
new-keys
 62
5
370
-1
  6
ByLayer
 10
120.3000000000000114
 20
52.7000000000000313
 30
0.0
 11
106.7000000000000171
 21
52.7000000000000313
 31
0.0
  0
LINE
  5
14E
100
AcDbEntity
100
AcDbLine
  8
new-keys
 62
5
370
-1
  6
ByLayer
 10
106.7000000000000171
 20
52.7000000000000313
 30
0.0
 11
106.7000000000000171
 21
66.3000000000000256
 31
0.0
  0
LINE
  5
14F
100
AcDbEntity
100
AcDbLine
  8
new-keys
 62
5
370
-1
  6
ByLayer
 10
87.7000000000000028
 20
66.3000000000000398
 30
0.0
 11
101.2999999999999972
 21
66.3000000000000398
 31
0.0
  0
LINE
  5
150
100
AcDbEntity
100
AcDbLine
  8
new-keys
 62
5
370
-1
  6
ByLayer
 10
101.2999999999999972
 20
66.3000000000000398
 30
0.0
 11
101.2999999999999972
 21
52.7000000000000455
 31
0.0
  0
LINE
  5
151
100
AcDbEntity
100
AcDbLine
  8
new-keys
 62
5
370
-1
  6
ByLayer
 10
101.2999999999999972
 20
52.7000000000000455
 30
0.0
 11
87.7000000000000028
 21
52.7000000000000455
 31
0.0
  0
LINE
  5
152
100
AcDbEntity
100
AcDbLine
  8
new-keys
 62
5
370
-1
  6
ByLayer
 10
87.7000000000000028
 20
52.7000000000000455
 30
0.0
 11
87.7000000000000028
 21
66.3000000000000398
 31
0.0
  0
LINE
  5
153
100
AcDbEntity
100
AcDbLine
  8
new-keys
 62
5
370
-1
  6
ByLayer
 10
68.7000000000000171
 20
66.3000000000000398
 30
0.0
 11
82.3000000000000114
 21
66.3000000000000398
 31
0.0
  0
LINE
  5
154
100
AcDbEntity
100
AcDbLine
  8
new-keys
 62
5
370
-1
  6
ByLayer
 10
82.3000000000000114
 20
66.3000000000000398
 30
0.0
 11
82.3000000000000114
 21
52.7000000000000455
 31
0.0
  0
LINE
  5
155
100
AcDbEntity
100
AcDbLine
  8
new-keys
 62
5
370
-1
  6
ByLayer
 10
82.3000000000000114
 20
52.7000000000000455
 30
0.0
 11
68.7000000000000171
 21
52.7000000000000455
 31
0.0
  0
LINE
  5
156
100
AcDbEntity
100
AcDbLine
  8
new-keys
 62
5
370
-1
  6
ByLayer
 10
68.7000000000000171
 20
52.7000000000000455
 30
0.0
 11
68.7000000000000171
 21
66.3000000000000398
 31
0.0
  0
LINE
  5
157
100
AcDbEntity
100
AcDbLine
  8
new-keys
 62
5
370
-1
  6
ByLayer
 10
49.7000000000000028
 20
66.3000000000000398
 30
0.0
 11
63.2999999999999972
 21
66.3000000000000398
 31
0.0
  0
LINE
  5
158
100
AcDbEntity
100
AcDbLine
  8
new-keys
 62
5
370
-1
  6
ByLayer
 10
63.2999999999999972
 20
66.3000000000000398
 30
0.0
 11
63.2999999999999972
 21
52.7000000000000455
 31
0.0
  0
LINE
  5
159
100
AcDbEntity
100
AcDbLine
  8
new-keys
 62
5
370
-1
  6
ByLayer
 10
63.2999999999999972
 20
52.7000000000000455
 30
0.0
 11
49.7000000000000028
 21
52.7000000000000455
 31
0.0
  0
LINE
  5
15A
100
AcDbEntity
100
AcDbLine
  8
new-keys
 62
5
370
-1
  6
ByLayer
 10
49.7000000000000028
 20
52.7000000000000455
 30
0.0
 11
49.7000000000000028
 21
66.3000000000000398
 31
0.0
  0
LINE
  5
15B
100
AcDbEntity
100
AcDbLine
  8
new-keys
 62
5
370
-1
  6
ByLayer
 10
30.7000000000000028
 20
66.3000000000000256
 30
0.0
 11
44.2999999999999972
 21
66.3000000000000256
 31
0.0
  0
LINE
  5
15C
100
AcDbEntity
100
AcDbLine
  8
new-keys
 62
5
370
-1
  6
ByLayer
 10
44.2999999999999972
 20
66.3000000000000256
 30
0.0
 11
44.2999999999999972
 21
52.7000000000000313
 31
0.0
  0
LINE
  5
15D
100
AcDbEntity
100
AcDbLine
  8
new-keys
 62
5
370
-1
  6
ByLayer
 10
44.2999999999999972
 20
52.7000000000000313
 30
0.0
 11
30.7000000000000028
 21
52.7000000000000313
 31
0.0
  0
LINE
  5
15E
100
AcDbEntity
100
AcDbLine
  8
new-keys
 62
5
370
-1
  6
ByLayer
 10
30.7000000000000028
 20
52.7000000000000313
 30
0.0
 11
30.7000000000000028
 21
66.3000000000000256
 31
0.0
  0
LINE
  5
15F
100
AcDbEntity
100
AcDbLine
  8
new-keys
 62
5
370
-1
  6
ByLayer
 10
11.7000000000000028
 20
66.3000000000000256
 30
0.0
 11
25.2999999999999972
 21
66.3000000000000256
 31
0.0
  0
LINE
  5
160
100
AcDbEntity
100
AcDbLine
  8
new-keys
 62
5
370
-1
  6
ByLayer
 10
25.2999999999999972
 20
66.3000000000000256
 30
0.0
 11
25.2999999999999972
 21
52.7000000000000313
 31
0.0
  0
LINE
  5
161
100
AcDbEntity
100
AcDbLine
  8
new-keys
 62
5
370
-1
  6
ByLayer
 10
25.2999999999999972
 20
52.7000000000000313
 30
0.0
 11
11.7000000000000028
 21
52.7000000000000313
 31
0.0
  0
LINE
  5
162
100
AcDbEntity
100
AcDbLine
  8
new-keys
 62
5
370
-1
  6
ByLayer
 10
11.7000000000000028
 20
52.7000000000000313
 30
0.0
 11
11.7000000000000028
 21
66.3000000000000256
 31
0.0
  0
LINE
  5
163
100
AcDbEntity
100
AcDbLine
  8
new-keys
 62
5
370
-1
  6
ByLayer
 10
-19.8000000000000043
 20
66.3000000000000256
 30
0.0
 11
-6.2000000000000082
 21
66.3000000000000256
 31
0.0
  0
LINE
  5
164
100
AcDbEntity
100
AcDbLine
  8
new-keys
 62
5
370
-1
  6
ByLayer
 10
-6.2000000000000082
 20
66.3000000000000256
 30
0.0
 11
-6.2000000000000082
 21
52.7000000000000313
 31
0.0
  0
LINE
  5
165
100
AcDbEntity
100
AcDbLine
  8
new-keys
 62
5
370
-1
  6
ByLayer
 10
-6.2000000000000082
 20
52.7000000000000313
 30
0.0
 11
-19.8000000000000043
 21
52.7000000000000313
 31
0.0
  0
LINE
  5
166
100
AcDbEntity
100
AcDbLine
  8
new-keys
 62
5
370
-1
  6
ByLayer
 10
-19.8000000000000043
 20
52.7000000000000313
 30
0.0
 11
-19.8000000000000043
 21
66.3000000000000256
 31
0.0
  0
LINE
  5
167
100
AcDbEntity
100
AcDbLine
  8
new-keys
 62
5
370
-1
  6
ByLayer
 10
-29.3000000000000043
 20
47.3000000000000256
 30
0.0
 11
-15.7000000000000082
 21
47.3000000000000256
 31
0.0
  0
LINE
  5
168
100
AcDbEntity
100
AcDbLine
  8
new-keys
 62
5
370
-1
  6
ByLayer
 10
-15.7000000000000082
 20
47.3000000000000256
 30
0.0
 11
-15.7000000000000082
 21
33.7000000000000313
 31
0.0
  0
LINE
  5
169
100
AcDbEntity
100
AcDbLine
  8
new-keys
 62
5
370
-1
  6
ByLayer
 10
-15.7000000000000082
 20
33.7000000000000313
 30
0.0
 11
-29.3000000000000043
 21
33.7000000000000313
 31
0.0
  0
LINE
  5
16A
100
AcDbEntity
100
AcDbLine
  8
new-keys
 62
5
370
-1
  6
ByLayer
 10
-29.3000000000000043
 20
33.7000000000000313
 30
0.0
 11
-29.3000000000000043
 21
47.3000000000000256
 31
0.0
  0
LINE
  5
16B
100
AcDbEntity
100
AcDbLine
  8
new-keys
 62
5
370
-1
  6
ByLayer
 10
-26.5000000000000036
 20
66.3000000000000114
 30
0.0
 11
-23.5000000000000036
 21
66.3000000000000114
 31
0.0
  0
LINE
  5
16C
100
AcDbEntity
100
AcDbLine
  8
new-keys
 62
5
370
-1
  6
ByLayer
 10
-23.5000000000000036
 20
66.3000000000000114
 30
0.0
 11
-23.5000000000000036
 21
52.7000000000000028
 31
0.0
  0
LINE
  5
16D
100
AcDbEntity
100
AcDbLine
  8
new-keys
 62
5
370
-1
  6
ByLayer
 10
-23.5000000000000036
 20
52.7000000000000028
 30
0.0
 11
-26.5000000000000036
 21
52.7000000000000028
 31
0.0
  0
LINE
  5
16E
100
AcDbEntity
100
AcDbLine
  8
new-keys
 62
5
370
-1
  6
ByLayer
 10
-26.5000000000000036
 20
52.7000000000000028
 30
0.0
 11
-26.5000000000000036
 21
66.3000000000000114
 31
0.0
  0
LINE
  5
16F
100
AcDbEntity
100
AcDbLine
  8
new-keys
 62
5
370
-1
  6
ByLayer
 10
0.5000000000000009
 20
66.3000000000000114
 30
0.0
 11
-2.4999999999999991
 21
66.3000000000000114
 31
0.0
  0
LINE
  5
170
100
AcDbEntity
100
AcDbLine
  8
new-keys
 62
5
370
-1
  6
ByLayer
 10
-2.4999999999999991
 20
66.3000000000000114
 30
0.0
 11
-2.4999999999999991
 21
52.6999999999999957
 31
0.0
  0
LINE
  5
171
100
AcDbEntity
100
AcDbLine
  8
new-keys
 62
5
370
-1
  6
ByLayer
 10
-2.4999999999999991
 20
52.6999999999999957
 30
0.0
 11
0.5000000000000009
 21
52.6999999999999957
 31
0.0
  0
LINE
  5
172
100
AcDbEntity
100
AcDbLine
  8
new-keys
 62
5
370
-1
  6
ByLayer
 10
0.5000000000000009
 20
52.6999999999999957
 30
0.0
 11
0.5000000000000009
 21
66.3000000000000114
 31
0.0
  0
LINE
  5
173
100
AcDbEntity
100
AcDbLine
  8
new-keys
 62
5
370
-1
  6
ByLayer
 10
216.9000000000000625
 20
85.3000000000000256
 30
0.0
 11
219.9000000000000625
 21
85.3000000000000256
 31
0.0
  0
LINE
  5
174
100
AcDbEntity
100
AcDbLine
  8
new-keys
 62
5
370
-1
  6
ByLayer
 10
219.9000000000000625
 20
85.3000000000000256
 30
0.0
 11
219.9000000000000625
 21
71.7000000000000171
 31
0.0
  0
LINE
  5
175
100
AcDbEntity
100
AcDbLine
  8
new-keys
 62
5
370
-1
  6
ByLayer
 10
219.9000000000000625
 20
71.7000000000000171
 30
0.0
 11
216.9000000000000625
 21
71.7000000000000171
 31
0.0
  0
LINE
  5
176
100
AcDbEntity
100
AcDbLine
  8
new-keys
 62
5
370
-1
  6
ByLayer
 10
216.9000000000000625
 20
71.7000000000000171
 30
0.0
 11
216.9000000000000625
 21
85.3000000000000256
 31
0.0
  0
LINE
  5
177
100
AcDbEntity
100
AcDbLine
  8
new-keys
 62
5
370
-1
  6
ByLayer
 10
243.9000000000000625
 20
85.3000000000000256
 30
0.0
 11
240.9000000000000625
 21
85.3000000000000256
 31
0.0
  0
LINE
  5
178
100
AcDbEntity
100
AcDbLine
  8
new-keys
 62
5
370
-1
  6
ByLayer
 10
240.9000000000000625
 20
85.3000000000000256
 30
0.0
 11
240.9000000000000625
 21
71.7000000000000171
 31
0.0
  0
LINE
  5
179
100
AcDbEntity
100
AcDbLine
  8
new-keys
 62
5
370
-1
  6
ByLayer
 10
240.9000000000000625
 20
71.7000000000000171
 30
0.0
 11
243.9000000000000625
 21
71.7000000000000171
 31
0.0
  0
LINE
  5
17A
100
AcDbEntity
100
AcDbLine
  8
new-keys
 62
5
370
-1
  6
ByLayer
 10
243.9000000000000625
 20
71.7000000000000171
 30
0.0
 11
243.9000000000000625
 21
85.3000000000000256
 31
0.0
  0
LINE
  5
17B
100
AcDbEntity
100
AcDbLine
  8
new-keys
 62
5
370
-1
  6
ByLayer
 10
213.3000000000000398
 20
39.9999999999999076
 30
0.0
 11
213.3000000000000398
 21
39.9999999999999076
 31
0.0
  0
LINE
  5
17C
100
AcDbEntity
100
AcDbLine
  8
new-keys
 62
5
370
-1
  6
ByLayer
 10
195.0000000000000284
 20
47.3000000000000043
 30
0.0
 11
208.6000000000000227
 21
47.3000000000000043
 31
0.0
  0
LINE
  5
17D
100
AcDbEntity
100
AcDbLine
  8
new-keys
 62
5
370
-1
  6
ByLayer
 10
208.6000000000000227
 20
47.3000000000000043
 30
0.0
 11
208.6000000000000227
 21
33.7000000000000099
 31
0.0
  0
LINE
  5
17E
100
AcDbEntity
100
AcDbLine
  8
new-keys
 62
5
370
-1
  6
ByLayer
 10
208.6000000000000227
 20
33.7000000000000099
 30
0.0
 11
195.0000000000000284
 21
33.7000000000000099
 31
0.0
  0
LINE
  5
17F
100
AcDbEntity
100
AcDbLine
  8
new-keys
 62
5
370
-1
  6
ByLayer
 10
195.0000000000000284
 20
33.7000000000000099
 30
0.0
 11
195.0000000000000284
 21
47.3000000000000043
 31
0.0
  0
LINE
  5
180
100
AcDbEntity
100
AcDbLine
  8
new-keys
 62
5
370
-1
  6
ByLayer
 10
-5.5999999999999996
 20
47.3000000000000043
 30
0.0
 11
7.9999999999999947
 21
47.3000000000000043
 31
0.0
  0
LINE
  5
181
100
AcDbEntity
100
AcDbLine
  8
new-keys
 62
5
370
-1
  6
ByLayer
 10
7.9999999999999947
 20
47.3000000000000043
 30
0.0
 11
7.9999999999999947
 21
33.7000000000000099
 31
0.0
  0
LINE
  5
182
100
AcDbEntity
100
AcDbLine
  8
new-keys
 62
5
370
-1
  6
ByLayer
 10
7.9999999999999947
 20
33.7000000000000099
 30
0.0
 11
-5.5999999999999996
 21
33.7000000000000099
 31
0.0
  0
LINE
  5
183
100
AcDbEntity
100
AcDbLine
  8
new-keys
 62
5
370
-1
  6
ByLayer
 10
-5.5999999999999996
 20
33.7000000000000099
 30
0.0
 11
-5.5999999999999996
 21
47.3000000000000043
 31
0.0
  0
LINE
  5
184
100
AcDbEntity
100
AcDbLine
  8
new-keys
 62
5
370
-1
  6
ByLayer
 10
171.3000000000000114
 20
47.3000000000000256
 30
0.0
 11
184.9000000000000341
 21
47.3000000000000256
 31
0.0
  0
LINE
  5
185
100
AcDbEntity
100
AcDbLine
  8
new-keys
 62
5
370
-1
  6
ByLayer
 10
184.9000000000000341
 20
47.3000000000000256
 30
0.0
 11
184.9000000000000341
 21
33.7000000000000313
 31
0.0
  0
LINE
  5
186
100
AcDbEntity
100
AcDbLine
  8
new-keys
 62
5
370
-1
  6
ByLayer
 10
184.9000000000000341
 20
33.7000000000000313
 30
0.0
 11
171.3000000000000114
 21
33.7000000000000313
 31
0.0
  0
LINE
  5
187
100
AcDbEntity
100
AcDbLine
  8
new-keys
 62
5
370
-1
  6
ByLayer
 10
171.3000000000000114
 20
33.7000000000000313
 30
0.0
 11
171.3000000000000114
 21
47.3000000000000256
 31
0.0
  0
LINE
  5
188
100
AcDbEntity
100
AcDbLine
  8
new-keys
 62
5
370
-1
  6
ByLayer
 10
195.0000000000000284
 20
47.3000000000000043
 30
0.0
 11
208.6000000000000227
 21
47.3000000000000043
 31
0.0
  0
LINE
  5
189
100
AcDbEntity
100
AcDbLine
  8
new-keys
 62
5
370
-1
  6
ByLayer
 10
208.6000000000000227
 20
47.3000000000000043
 30
0.0
 11
208.6000000000000227
 21
33.7000000000000099
 31
0.0
  0
LINE
  5
18A
100
AcDbEntity
100
AcDbLine
  8
new-keys
 62
5
370
-1
  6
ByLayer
 10
208.6000000000000227
 20
33.7000000000000099
 30
0.0
 11
195.0000000000000284
 21
33.7000000000000099
 31
0.0
  0
LINE
  5
18B
100
AcDbEntity
100
AcDbLine
  8
new-keys
 62
5
370
-1
  6
ByLayer
 10
195.0000000000000284
 20
33.7000000000000099
 30
0.0
 11
195.0000000000000284
 21
47.3000000000000043
 31
0.0
  0
LINE
  5
18C
100
AcDbEntity
100
AcDbLine
  8
collum
 62
256
370
-1
  6
ByLayer
 10
220.0049746743849823
 20
47.5872829232995755
 30
0.0
 11
198.6251808972504023
 21
36.2077152677279344
 31
0.0
  0
LINE
  5
18D
100
AcDbEntity
100
AcDbLine
  8
collum
 62
256
370
-1
  6
ByLayer
 10
246.5572992040521285
 20
144.4860256874095796
 30
0.0
 11
220.0049746743849823
 21
47.5872829232995755
 31
0.0
  0
LINE
  5
18E
100
AcDbEntity
100
AcDbLine
  8
collum
 62
256
370
-1
  6
ByLayer
 10
225.8671761939218925
 20
145.5205318379160815
 30
0.0
 11
224.1429992764110466
 21
113.1060057887120252
 31
0.0
  0
LINE
  5
18F
100
AcDbEntity
100
AcDbLine
  8
collum
 62
256
370
-1
  6
ByLayer
 10
224.1429992764110466
 20
113.1060057887120252
 30
0.0
 11
178.9695640376266681
 21
36.8973860347322784
 31
0.0
  0
LINE
  5
190
100
AcDbEntity
100
AcDbLine
  8
collum
 62
256
370
-1
  6
ByLayer
 10
200.3493578147612482
 20
148.2792149059334577
 30
0.0
 11
202.4183701157742803
 21
122.7613965267728133
 31
0.0
  0
LINE
  5
191
100
AcDbEntity
100
AcDbLine
  8
collum
 62
256
370
-1
  6
ByLayer
 10
202.4183701157742803
 20
122.7613965267728133
 30
0.0
 11
162.7623010130246257
 21
47.5872829232995755
 31
0.0
  0
LINE
  5
192
100
AcDbEntity
100
AcDbLine
  8
collum
 62
256
370
-1
  6
ByLayer
 10
181.7282471056440158
 20
148.6240502894356155
 30
0.0
 11
183.797259406657048
 21
117.9337011577424192
 31
0.0
  0
LINE
  5
193
100
AcDbEntity
100
AcDbLine
  8
collum
 62
256
370
-1
  6
ByLayer
 10
183.797259406657048
 20
117.9337011577424192
 30
0.0
 11
136.5548118668596373
 21
38.6215629522431314
 31
0.0
  0
LINE
  5
194
100
AcDbEntity
100
AcDbLine
  8
collum
 62
256
370
-1
  6
ByLayer
 10
163.4519717800289698
 20
144.4860256874095796
 30
0.0
 11
162.4174656295224679
 21
114.4853473227207132
 31
0.0
  0
LINE
  5
195
100
AcDbEntity
100
AcDbLine
  8
collum
 62
256
370
-1
  6
ByLayer
 10
162.4174656295224679
 20
114.4853473227207132
 30
0.0
 11
110.6921581041968352
 21
38.2767275687409594
 31
0.0
  0
LINE
  5
196
100
AcDbEntity
100
AcDbLine
  8
collum
 62
256
370
-1
  6
ByLayer
 10
146.2102026049204255
 20
145.5205318379160815
 30
0.0
 11
145.5205318379160815
 21
116.2095242402315733
 31
0.0
  0
LINE
  5
197
100
AcDbEntity
100
AcDbLine
  8
collum
 62
256
370
-1
  6
ByLayer
 10
145.5205318379160815
 20
116.2095242402315733
 30
0.0
 11
112.0714996382055233
 21
57.5875090448625286
 31
0.0
  0
LINE
  5
198
100
AcDbEntity
100
AcDbLine
  8
collum
 62
256
370
-1
  6
ByLayer
 10
112.0714996382055233
 20
57.5875090448625286
 30
0.0
 11
96.553907380607825
 21
41.3802460202605005
 31
0.0
  0
LINE
  5
199
100
AcDbEntity
100
AcDbLine
  8
collum
 62
256
370
-1
  6
ByLayer
 10
127.5890918958032074
 20
143.4515195369030778
 30
0.0
 11
127.9339272793053794
 21
113.7956765557163692
 31
0.0
  0
LINE
  5
19A
100
AcDbEntity
100
AcDbLine
  8
collum
 62
256
370
-1
  6
ByLayer
 10
127.9339272793053794
 20
113.7956765557163692
 30
0.0
 11
94.140059696092635
 21
61.3806982633864067
 31
0.0
  0
LINE
  5
19B
100
AcDbEntity
100
AcDbLine
  8
collum
 62
256
370
-1
  6
ByLayer
 10
94.140059696092635
 20
61.3806982633864067
 30
0.0
 11
78.2776320549927789
 21
41.7250814037626725
 31
0.0
  0
LINE
  5
19C
100
AcDbEntity
100
AcDbLine
  8
collum
 62
256
370
-1
  6
ByLayer
 10
107.5886396526773012
 20
141.7273426193922035
 30
0.0
 11
110.0024873371924912
 21
116.5543596237337454
 31
0.0
  0
LINE
  5
19D
100
AcDbEntity
100
AcDbLine
  8
collum
 62
256
370
-1
  6
ByLayer
 10
110.0024873371924912
 20
116.5543596237337454
 30
0.0
 11
75.5189489869754169
 21
59.3116859623733816
 31
0.0
  0
LINE
  5
19E
100
AcDbEntity
100
AcDbLine
  8
collum
 62
256
370
-1
  6
ByLayer
 10
89.657199710564413
 20
145.5205318379160815
 30
0.0
 11
88.9675289435600689
 21
113.7956765557163692
 31
0.0
  0
LINE
  5
19F
100
AcDbEntity
100
AcDbLine
  8
collum
 62
256
370
-1
  6
ByLayer
 10
88.9675289435600689
 20
113.7956765557163692
 30
0.0
 11
54.4839905933429876
 21
58.9668505788712096
 31
0.0
  0
LINE
  5
1A0
100
AcDbEntity
100
AcDbLine
  8
collum
 62
256
370
-1
  6
ByLayer
 10
54.4839905933429876
 20
58.9668505788712096
 30
0.0
 11
54.4839905933429876
 21
39.6560691027496475
 31
0.0
  0
LINE
  5
1A1
100
AcDbEntity
100
AcDbLine
  8
collum
 62
256
370
-1
  6
ByLayer
 10
67.9325705499276467
 20
144.1411903039073934
 30
0.0
 11
68.9670767004341627
 21
113.4508411722141972
 31
0.0
  0
LINE
  5
1A2
100
AcDbEntity
100
AcDbLine
  8
collum
 62
256
370
-1
  6
ByLayer
 10
68.9670767004341627
 20
113.4508411722141972
 30
0.0
 11
36.8973860347322784
 21
59.6565213458755537
 31
0.0
  0
LINE
  5
1A3
100
AcDbEntity
100
AcDbLine
  8
collum
 62
256
370
-1
  6
ByLayer
 10
36.8973860347322784
 20
59.6565213458755537
 30
0.0
 11
25.5178183791606408
 21
38.6215629522431314
 31
0.0
  0
LINE
  5
1A4
100
AcDbEntity
100
AcDbLine
  8
collum
 62
256
370
-1
  6
ByLayer
 10
51.0356367583212815
 20
144.4860256874095796
 30
0.0
 11
50.6908013748191095
 21
114.8301827062228853
 31
0.0
  0
LINE
  5
1A5
100
AcDbEntity
100
AcDbLine
  8
collum
 62
256
370
-1
  6
ByLayer
 10
50.6908013748191095
 20
114.8301827062228853
 30
0.0
 11
20.0004522431259062
 21
61.0358628798842346
 31
0.0
  0
LINE
  5
1A6
100
AcDbEntity
100
AcDbLine
  8
collum
 62
256
370
-1
  6
ByLayer
 10
30.0006783646888628
 20
141.3825072358900456
 30
0.0
 11
28.6213368306801783
 21
116.5543596237337454
 31
0.0
  0
LINE
  5
1A7
100
AcDbEntity
100
AcDbLine
  8
collum
 62
256
370
-1
  6
ByLayer
 10
-27.2419952966714938
 20
144.1411903039073934
 30
0.0
 11
-24.4833122286541283
 21
116.2095242402315733
 31
0.0
  0
LINE
  5
1A8
100
AcDbEntity
100
AcDbLine
  8
collum
 62
256
370
-1
  6
ByLayer
 10
-24.4833122286541283
 20
116.2095242402315733
 30
0.0
 11
-16.8969337916063722
 21
57.9323444283647007
 31
0.0
  0
LINE
  5
1A9
100
AcDbEntity
100
AcDbLine
  8
collum
 62
256
370
-1
  6
ByLayer
 10
-16.8969337916063722
 20
57.9323444283647007
 30
0.0
 11
-20.6901230101302502
 21
38.9663983357453034
 31
0.0
  0
LINE
  5
1AA
100
AcDbEntity
100
AcDbLine
  8
collum
 62
256
370
-1
  6
ByLayer
 10
-11.0347322720694656
 20
150.6930625904486476
 30
0.0
 11
-6.8967076700434164
 21
114.8301827062228853
 31
0.0
  0
LINE
  5
1AB
100
AcDbEntity
100
AcDbLine
  8
collum
 62
256
370
-1
  6
ByLayer
 10
12.7589091895803204
 20
151.7275687409551495
 30
0.0
 11
11.7244030390738079
 21
113.7956765557163692
 31
0.0
  0
LINE
  5
1AC
100
AcDbEntity
100
AcDbLine
  8
collum
 62
256
370
-1
  6
ByLayer
 10
11.7244030390738079
 20
113.7956765557163692
 30
0.0
 11
0.6896707670043416
 21
95.5194012301013231
 31
0.0
  0
LINE
  5
1AD
100
AcDbEntity
100
AcDbLine
  8
collum
 62
256
370
-1
  6
ByLayer
 10
6.8967076700434164
 20
79.3121382054992949
 30
0.0
 11
28.5653024602026306
 21
117.3708503617946093
 31
0.0
  0
LINE
  5
1AE
100
AcDbEntity
100
AcDbLine
  8
row
 62
256
370
-1
  6
ByLayer
 10
-61.0358628798842844
 20
117.2440303907381747
 30
0.0
 11
276.2131421852390645
 21
116.2095242402316586
 31
0.0
  0
LINE
  5
1AF
100
AcDbEntity
100
AcDbLine
  8
row
 62
256
370
-1
  6
ByLayer
 10
-53.7943198263386932
 20
96.5539073806079102
 30
0.0
 11
276.2131421852390645
 21
99.3125904486252722
 31
0.0
  0
LINE
  5
1B0
100
AcDbEntity
100
AcDbLine
  8
row
 62
256
370
-1
  6
ByLayer
 10
276.2131421852390645
 20
78.2776320549928357
 30
0.0
 11
-52.0701429088278331
 21
78.9673028219971798
 31
0.0
  0
LINE
  5
1B1
100
AcDbEntity
100
AcDbLine
  8
row
 62
256
370
-1
  6
ByLayer
 10
-55.5184967438495462
 20
56.5530028943560623
 30
0.0
 11
287.5927098408106986
 21
60.6910274963821124
 31
0.0
  0
LINE
  5
1B2
100
AcDbEntity
100
AcDbLine
  8
row
 62
256
370
-1
  6
ByLayer
 10
276.2131421852390645
 20
39.6560691027496759
 30
0.0
 11
-61.0358628798842844
 21
38.2767275687409878
 31
0.0
  0
MTEXT
  5
1B3
100
AcDbEntity
100
AcDbMText
  8
pins
 62
256
370
-1
  6
ByLayer
 10
244.1434515195371375
 20
154.4862518089726393
 30
0.0
 40
10.0
 41
100.0
 71
1
 72
2
  1
pc7\P
  7
normallatin1
 50
0.0
 73
0
 44
1.0
  0
MTEXT
  5
1B4
100
AcDbEntity
100
AcDbMText
  8
pins
 62
256
370
-1
  6
ByLayer
 10
196.9010039797396985
 20
165.1761486975399578
 30
0.0
 40
10.0
 41
100.0
 71
1
 72
2
  1
pd3\P
  7
normallatin1
 50
0.0
 73
0
 44
1.0
  0
MTEXT
  5
1B5
100
AcDbEntity
100
AcDbMText
  8
pins
 62
256
370
-1
  6
ByLayer
 10
222.073986975398185
 20
161.0381240955138935
 30
0.0
 40
10.0
 41
100.0
 71
1
 72
2
  1
pc6\P
  7
normallatin1
 50
0.0
 73
0
 44
1.0
  0
MTEXT
  5
1B6
100
AcDbEntity
100
AcDbMText
  8
pins
 62
256
370
-1
  6
ByLayer
 10
-17.5866045586107269
 20
162.7623010130247678
 30
0.0
 40
10.0
 41
100.0
 71
1
 72
2
  1
pd2
  7
normallatin1
 50
0.0
 73
0
 44
1.0
  0
MTEXT
  5
1B7
100
AcDbEntity
100
AcDbMText
  8
pins
 62
256
370
-1
  6
ByLayer
 10
156.5552641099856714
 20
161.3829594790160797
 30
0.0
 40
10.0
 41
100.0
 71
1
 72
2
  1
pd5
  7
normallatin1
 50
0.0
 73
0
 44
1.0
  0
MTEXT
  5
1B8
100
AcDbEntity
100
AcDbMText
  8
pins
 62
256
370
-1
  6
ByLayer
 10
-40.3457398697540199
 20
157.5897702604922017
 30
0.0
 40
10.0
 41
100.0
 71
1
 72
2
  1
pd1
  7
normallatin1
 50
0.0
 73
0
 44
1.0
  0
LINE
  5
1B9
100
AcDbEntity
100
AcDbLine
  8
pins
 62
256
370
-1
  6
ByLayer
 10
8.2760492040521054
 20
80.0018089725036958
 30
0.0
 11
0.6896707670043422
 21
39.3112337192475039
 31
0.0
  0
MTEXT
  5
1BA
100
AcDbEntity
100
AcDbMText
  8
pins
 62
256
370
-1
  6
ByLayer
 10
46.207941389290923
 20
159.6587825615052054
 30
0.0
 40
10.0
 41
100.0
 71
1
 72
2
  1
pb3
  7
normallatin1
 50
0.0
 73
0
 44
1.0
  0
MTEXT
  5
1BB
100
AcDbEntity
100
AcDbMText
  8
pins
 62
256
370
-1
  6
ByLayer
 10
101.3816027496383043
 20
160.0036179450073917
 30
0.0
 40
10.0
 41
100.0
 71
1
 72
2
  1
pb0
  7
normallatin1
 50
0.0
 73
0
 44
1.0
  0
MTEXT
  5
1BC
100
AcDbEntity
100
AcDbMText
  8
pins
 62
256
370
-1
  6
ByLayer
 10
82.0708212735167137
 20
157.2449348769900155
 30
0.0
 40
10.0
 41
100.0
 71
1
 72
2
  1
pb1
  7
normallatin1
 50
0.0
 73
0
 44
1.0
  0
MTEXT
  5
1BD
100
AcDbEntity
100
AcDbMText
  8
pins
 62
256
370
-1
  6
ByLayer
 10
62.4152044138929654
 20
147.5895441389292273
 30
0.0
 40
10.0
 41
100.0
 71
1
 72
2
  1
pb2
  7
normallatin1
 50
0.0
 73
0
 44
1.0
  0
MTEXT
  5
1BE
100
AcDbEntity
100
AcDbMText
  8
pins
 62
256
370
-1
  6
ByLayer
 10
176.5557163531115918
 20
152.7620748914617934
 30
0.0
 40
10.0
 41
100.0
 71
1
 72
2
  1
pb7
  7
normallatin1
 50
0.0
 73
0
 44
1.0
  0
MTEXT
  5
1BF
100
AcDbEntity
100
AcDbMText
  8
pins
 62
256
370
-1
  6
ByLayer
 10
24.1384768451519776
 20
149.6585564399422594
 30
0.0
 40
10.0
 41
100.0
 71
1
 72
2
  1
pd0
  7
normallatin1
 50
0.0
 73
0
 44
1.0
  0
MTEXT
  5
1C0
100
AcDbEntity
100
AcDbMText
  8
pins
 62
256
370
-1
  6
ByLayer
 10
11.7244030390738168
 20
164.4864779305356137
 30
0.0
 40
10.0
 41
100.0
 71
1
 72
2
  1
pd4
  7
normallatin1
 50
0.0
 73
0
 44
1.0
  0
MTEXT
  5
1C1
100
AcDbEntity
100
AcDbMText
  8
pins
 62
256
370
-1
  6
ByLayer
 10
119.6578780752533646
 20
149.3137210564400732
 30
0.0
 40
10.0
 41
100.0
 71
1
 72
2
  1
pd7
  7
normallatin1
 50
0.0
 73
0
 44
1.0
  0
MTEXT
  5
1C2
100
AcDbEntity
100
AcDbMText
  8
pins
 62
256
370
-1
  6
ByLayer
 10
139.658330318379285
 20
152.7620748914617934
 30
0.0
 40
10.0
 41
100.0
 71
1
 72
2
  1
pb4
  7
normallatin1
 50
0.0
 73
0
 44
1.0
  0
MTEXT
  5
1C3
100
AcDbEntity
100
AcDbMText
  8
0
 62
4
370
-1
  6
ByLayer
 10
67.75
 20
42.9999999999999361
 30
0.0
 40
3.0
 41
100.0
 71
1
 72
2
  1
space
  7
normallatin1
 50
360.0
 73
1
 44
1.0
  0
MTEXT
  5
1C4
100
AcDbEntity
100
AcDbMText
  8
0
 62
4
370
-1
  6
ByLayer
 10
67.75
 20
42.9999999999999361
 30
0.0
 40
3.0
 41
100.0
 71
1
 72
2
  1
space
  7
normallatin1
 50
360.0
 73
1
 44
1.0
  0
MTEXT
  5
1C5
100
AcDbEntity
100
AcDbMText
  8
0
 62
4
370
0
  6
CONTINUOUS
 10
46.0000000000000213
 20
36.0
 30
0.0
 40
3.0
 41
100.0
 71
7
 72
2
  1
alt\P
  7
normallatin1
 50
360.0
 73
1
 44
1.0
  0
LINE
  5
1C6
100
AcDbEntity
100
AcDbLine
  8
new-keys
 62
5
370
-1
  6
ByLayer
 10
66.7000000000000455
 20
47.3000000000000043
 30
0.0
 11
80.3000000000000398
 21
47.3000000000000043
 31
0.0
  0
LINE
  5
1C7
100
AcDbEntity
100
AcDbLine
  8
new-keys
 62
5
370
-1
  6
ByLayer
 10
80.3000000000000398
 20
47.3000000000000043
 30
0.0
 11
80.3000000000000398
 21
33.7000000000000099
 31
0.0
  0
LINE
  5
1C8
100
AcDbEntity
100
AcDbLine
  8
new-keys
 62
5
370
-1
  6
ByLayer
 10
80.3000000000000398
 20
33.7000000000000099
 30
0.0
 11
66.7000000000000455
 21
33.7000000000000099
 31
0.0
  0
LINE
  5
1C9
100
AcDbEntity
100
AcDbLine
  8
new-keys
 62
5
370
-1
  6
ByLayer
 10
66.7000000000000455
 20
33.7000000000000099
 30
0.0
 11
66.7000000000000455
 21
47.3000000000000043
 31
0.0
  0
LINE
  5
1CA
100
AcDbEntity
100
AcDbLine
  8
new-keys
 62
5
370
-1
  6
ByLayer
 10
66.7000000000000455
 20
47.3000000000000043
 30
0.0
 11
80.3000000000000398
 21
47.3000000000000043
 31
0.0
  0
LINE
  5
1CB
100
AcDbEntity
100
AcDbLine
  8
new-keys
 62
5
370
-1
  6
ByLayer
 10
80.3000000000000398
 20
47.3000000000000043
 30
0.0
 11
80.3000000000000398
 21
33.7000000000000099
 31
0.0
  0
LINE
  5
1CC
100
AcDbEntity
100
AcDbLine
  8
new-keys
 62
5
370
-1
  6
ByLayer
 10
80.3000000000000398
 20
33.7000000000000099
 30
0.0
 11
66.7000000000000455
 21
33.7000000000000099
 31
0.0
  0
LINE
  5
1CD
100
AcDbEntity
100
AcDbLine
  8
new-keys
 62
5
370
-1
  6
ByLayer
 10
66.7000000000000455
 20
33.7000000000000099
 30
0.0
 11
66.7000000000000455
 21
47.3000000000000043
 31
0.0
  0
LINE
  5
1CE
100
AcDbEntity
100
AcDbLine
  8
new-keys
 62
5
370
-1
  6
ByLayer
 10
66.7000000000000171
 20
47.3000000000000043
 30
0.0
 11
80.3000000000000398
 21
47.3000000000000043
 31
0.0
  0
LINE
  5
1CF
100
AcDbEntity
100
AcDbLine
  8
new-keys
 62
5
370
-1
  6
ByLayer
 10
80.3000000000000398
 20
47.3000000000000043
 30
0.0
 11
80.3000000000000398
 21
33.7000000000000099
 31
0.0
  0
LINE
  5
1D0
100
AcDbEntity
100
AcDbLine
  8
new-keys
 62
5
370
-1
  6
ByLayer
 10
80.3000000000000398
 20
33.7000000000000099
 30
0.0
 11
66.7000000000000171
 21
33.7000000000000099
 31
0.0
  0
LINE
  5
1D1
100
AcDbEntity
100
AcDbLine
  8
new-keys
 62
5
370
-1
  6
ByLayer
 10
66.7000000000000171
 20
33.7000000000000099
 30
0.0
 11
66.7000000000000171
 21
47.3000000000000043
 31
0.0
  0
LINE
  5
1D2
100
AcDbEntity
100
AcDbLine
  8
new-keys
 62
5
370
-1
  6
ByLayer
 10
43.1000000000000298
 20
47.3000000000000043
 30
0.0
 11
56.7000000000000242
 21
47.3000000000000043
 31
0.0
  0
LINE
  5
1D3
100
AcDbEntity
100
AcDbLine
  8
new-keys
 62
5
370
-1
  6
ByLayer
 10
56.7000000000000242
 20
47.3000000000000043
 30
0.0
 11
56.7000000000000242
 21
33.7000000000000099
 31
0.0
  0
LINE
  5
1D4
100
AcDbEntity
100
AcDbLine
  8
new-keys
 62
5
370
-1
  6
ByLayer
 10
56.7000000000000242
 20
33.7000000000000099
 30
0.0
 11
43.1000000000000298
 21
33.7000000000000099
 31
0.0
  0
LINE
  5
1D5
100
AcDbEntity
100
AcDbLine
  8
new-keys
 62
5
370
-1
  6
ByLayer
 10
43.1000000000000298
 20
33.7000000000000099
 30
0.0
 11
43.1000000000000298
 21
47.3000000000000043
 31
0.0
  0
LINE
  5
1D6
100
AcDbEntity
100
AcDbLine
  8
new-keys
 62
5
370
-1
  6
ByLayer
 10
43.1000000000000298
 20
47.3000000000000043
 30
0.0
 11
56.7000000000000242
 21
47.3000000000000043
 31
0.0
  0
LINE
  5
1D7
100
AcDbEntity
100
AcDbLine
  8
new-keys
 62
5
370
-1
  6
ByLayer
 10
56.7000000000000242
 20
47.3000000000000043
 30
0.0
 11
56.7000000000000242
 21
33.7000000000000099
 31
0.0
  0
LINE
  5
1D8
100
AcDbEntity
100
AcDbLine
  8
new-keys
 62
5
370
-1
  6
ByLayer
 10
56.7000000000000242
 20
33.7000000000000099
 30
0.0
 11
43.1000000000000298
 21
33.7000000000000099
 31
0.0
  0
LINE
  5
1D9
100
AcDbEntity
100
AcDbLine
  8
new-keys
 62
5
370
-1
  6
ByLayer
 10
43.1000000000000298
 20
33.7000000000000099
 30
0.0
 11
43.1000000000000298
 21
47.3000000000000043
 31
0.0
  0
LINE
  5
1DA
100
AcDbEntity
100
AcDbLine
  8
new-keys
 62
5
370
-1
  6
ByLayer
 10
43.1000000000000014
 20
47.3000000000000043
 30
0.0
 11
56.7000000000000242
 21
47.3000000000000043
 31
0.0
  0
LINE
  5
1DB
100
AcDbEntity
100
AcDbLine
  8
new-keys
 62
5
370
-1
  6
ByLayer
 10
56.7000000000000242
 20
47.3000000000000043
 30
0.0
 11
56.7000000000000242
 21
33.7000000000000099
 31
0.0
  0
LINE
  5
1DC
100
AcDbEntity
100
AcDbLine
  8
new-keys
 62
5
370
-1
  6
ByLayer
 10
56.7000000000000242
 20
33.7000000000000099
 30
0.0
 11
43.1000000000000014
 21
33.7000000000000099
 31
0.0
  0
LINE
  5
1DD
100
AcDbEntity
100
AcDbLine
  8
new-keys
 62
5
370
-1
  6
ByLayer
 10
43.1000000000000014
 20
33.7000000000000099
 30
0.0
 11
43.1000000000000014
 21
47.3000000000000043
 31
0.0
  0
LINE
  5
1DE
100
AcDbEntity
100
AcDbLine
  8
new-keys
 62
5
370
-1
  6
ByLayer
 10
19.5000000000000284
 20
47.3000000000000043
 30
0.0
 11
33.1000000000000227
 21
47.3000000000000043
 31
0.0
  0
LINE
  5
1DF
100
AcDbEntity
100
AcDbLine
  8
new-keys
 62
5
370
-1
  6
ByLayer
 10
33.1000000000000227
 20
47.3000000000000043
 30
0.0
 11
33.1000000000000227
 21
33.7000000000000099
 31
0.0
  0
LINE
  5
1E0
100
AcDbEntity
100
AcDbLine
  8
new-keys
 62
5
370
-1
  6
ByLayer
 10
33.1000000000000227
 20
33.7000000000000099
 30
0.0
 11
19.5000000000000284
 21
33.7000000000000099
 31
0.0
  0
LINE
  5
1E1
100
AcDbEntity
100
AcDbLine
  8
new-keys
 62
5
370
-1
  6
ByLayer
 10
19.5
 20
33.7000000000000099
 30
0.0
 11
19.5
 21
47.3000000000000043
 31
0.0
  0
MTEXT
  5
1E2
100
AcDbEntity
100
AcDbMText
  8
0
 62
4
370
-1
  6
ByLayer
 10
110.2499999999999716
 20
42.9999999999999076
 30
0.0
 40
3.0
 41
100.0
 71
1
 72
2
  1
space
  7
normallatin1
 50
360.0
 73
1
 44
1.0
  0
MTEXT
  5
1E3
100
AcDbEntity
100
AcDbMText
  8
0
 62
4
370
0
  6
CONTINUOUS
 10
135.2000000000000455
 20
36.0
 30
0.0
 40
3.0
 41
100.0
 71
7
 72
2
  1
alt\P
  7
normallatin1
 50
360.0
 73
1
 44
1.0
  0
MTEXT
  5
1E4
100
AcDbEntity
100
AcDbMText
  8
0
 62
4
370
-1
  6
ByLayer
 10
110.2499999999999716
 20
42.9999999999999076
 30
0.0
 40
3.0
 41
100.0
 71
1
 72
2
  1
space
  7
normallatin1
 50
360.0
 73
1
 44
1.0
  0
MTEXT
  5
1E5
100
AcDbEntity
100
AcDbMText
  8
0
 62
4
370
0
  6
CONTINUOUS
 10
135.2000000000000455
 20
36.0
 30
0.0
 40
3.0
 41
100.0
 71
7
 72
2
  1
alt\P
  7
normallatin1
 50
360.0
 73
1
 44
1.0
  0
LINE
  5
1E6
100
AcDbEntity
100
AcDbLine
  8
new-keys
 62
5
370
-1
  6
ByLayer
 10
108.7000000000000313
 20
47.3000000000000043
 30
0.0
 11
122.3000000000000256
 21
47.3000000000000043
 31
0.0
  0
LINE
  5
1E7
100
AcDbEntity
100
AcDbLine
  8
new-keys
 62
5
370
-1
  6
ByLayer
 10
122.3000000000000256
 20
47.3000000000000043
 30
0.0
 11
122.3000000000000256
 21
33.7000000000000099
 31
0.0
  0
LINE
  5
1E8
100
AcDbEntity
100
AcDbLine
  8
new-keys
 62
5
370
-1
  6
ByLayer
 10
122.3000000000000256
 20
33.7000000000000099
 30
0.0
 11
108.7000000000000313
 21
33.7000000000000099
 31
0.0
  0
LINE
  5
1E9
100
AcDbEntity
100
AcDbLine
  8
new-keys
 62
5
370
-1
  6
ByLayer
 10
108.7000000000000313
 20
33.7000000000000099
 30
0.0
 11
108.7000000000000313
 21
47.3000000000000043
 31
0.0
  0
LINE
  5
1EA
100
AcDbEntity
100
AcDbLine
  8
new-keys
 62
5
370
-1
  6
ByLayer
 10
108.7000000000000313
 20
47.3000000000000043
 30
0.0
 11
122.3000000000000256
 21
47.3000000000000043
 31
0.0
  0
LINE
  5
1EB
100
AcDbEntity
100
AcDbLine
  8
new-keys
 62
5
370
-1
  6
ByLayer
 10
122.3000000000000256
 20
47.3000000000000043
 30
0.0
 11
122.3000000000000256
 21
33.7000000000000099
 31
0.0
  0
LINE
  5
1EC
100
AcDbEntity
100
AcDbLine
  8
new-keys
 62
5
370
-1
  6
ByLayer
 10
122.3000000000000256
 20
33.7000000000000099
 30
0.0
 11
108.7000000000000313
 21
33.7000000000000099
 31
0.0
  0
LINE
  5
1ED
100
AcDbEntity
100
AcDbLine
  8
new-keys
 62
5
370
-1
  6
ByLayer
 10
108.7000000000000313
 20
33.7000000000000099
 30
0.0
 11
108.7000000000000313
 21
47.3000000000000043
 31
0.0
  0
LINE
  5
1EE
100
AcDbEntity
100
AcDbLine
  8
new-keys
 62
5
370
-1
  6
ByLayer
 10
132.3000000000000682
 20
47.3000000000000043
 30
0.0
 11
145.9000000000000341
 21
47.3000000000000043
 31
0.0
  0
LINE
  5
1EF
100
AcDbEntity
100
AcDbLine
  8
new-keys
 62
5
370
-1
  6
ByLayer
 10
145.9000000000000341
 20
47.3000000000000043
 30
0.0
 11
145.9000000000000341
 21
33.7000000000000099
 31
0.0
  0
LINE
  5
1F0
100
AcDbEntity
100
AcDbLine
  8
new-keys
 62
5
370
-1
  6
ByLayer
 10
145.9000000000000341
 20
33.7000000000000099
 30
0.0
 11
132.3000000000000682
 21
33.7000000000000099
 31
0.0
  0
LINE
  5
1F1
100
AcDbEntity
100
AcDbLine
  8
new-keys
 62
5
370
-1
  6
ByLayer
 10
132.3000000000000682
 20
33.7000000000000099
 30
0.0
 11
132.3000000000000682
 21
47.3000000000000043
 31
0.0
  0
LINE
  5
1F2
100
AcDbEntity
100
AcDbLine
  8
new-keys
 62
5
370
-1
  6
ByLayer
 10
132.3000000000000682
 20
47.3000000000000043
 30
0.0
 11
145.9000000000000341
 21
47.3000000000000043
 31
0.0
  0
LINE
  5
1F3
100
AcDbEntity
100
AcDbLine
  8
new-keys
 62
5
370
-1
  6
ByLayer
 10
145.9000000000000341
 20
47.3000000000000043
 30
0.0
 11
145.9000000000000341
 21
33.7000000000000099
 31
0.0
  0
LINE
  5
1F4
100
AcDbEntity
100
AcDbLine
  8
new-keys
 62
5
370
-1
  6
ByLayer
 10
145.9000000000000341
 20
33.7000000000000099
 30
0.0
 11
132.3000000000000682
 21
33.7000000000000099
 31
0.0
  0
LINE
  5
1F5
100
AcDbEntity
100
AcDbLine
  8
new-keys
 62
5
370
-1
  6
ByLayer
 10
132.3000000000000682
 20
33.7000000000000099
 30
0.0
 11
132.3000000000000682
 21
47.3000000000000043
 31
0.0
  0
LINE
  5
1F6
100
AcDbEntity
100
AcDbLine
  8
new-keys
 62
5
370
-1
  6
ByLayer
 10
132.3000000000000114
 20
47.3000000000000043
 30
0.0
 11
145.9000000000000341
 21
47.3000000000000043
 31
0.0
  0
LINE
  5
1F7
100
AcDbEntity
100
AcDbLine
  8
new-keys
 62
5
370
-1
  6
ByLayer
 10
145.9000000000000341
 20
47.3000000000000043
 30
0.0
 11
145.9000000000000341
 21
33.7000000000000099
 31
0.0
  0
LINE
  5
1F8
100
AcDbEntity
100
AcDbLine
  8
new-keys
 62
5
370
-1
  6
ByLayer
 10
145.9000000000000341
 20
33.7000000000000099
 30
0.0
 11
132.3000000000000114
 21
33.7000000000000099
 31
0.0
  0
LINE
  5
1F9
100
AcDbEntity
100
AcDbLine
  8
new-keys
 62
5
370
-1
  6
ByLayer
 10
132.3000000000000114
 20
33.7000000000000099
 30
0.0
 11
132.3000000000000114
 21
47.3000000000000043
 31
0.0
  0
LINE
  5
1FA
100
AcDbEntity
100
AcDbLine
  8
new-keys
 62
5
370
-1
  6
ByLayer
 10
108.7000000000000597
 20
47.3000000000000043
 30
0.0
 11
122.300000000000054
 21
47.3000000000000043
 31
0.0
  0
LINE
  5
1FB
100
AcDbEntity
100
AcDbLine
  8
new-keys
 62
5
370
-1
  6
ByLayer
 10
122.300000000000054
 20
47.3000000000000043
 30
0.0
 11
122.300000000000054
 21
33.7000000000000099
 31
0.0
  0
LINE
  5
1FC
100
AcDbEntity
100
AcDbLine
  8
new-keys
 62
5
370
-1
  6
ByLayer
 10
122.300000000000054
 20
33.7000000000000099
 30
0.0
 11
108.7000000000000597
 21
33.7000000000000099
 31
0.0
  0
LINE
  5
1FD
100
AcDbEntity
100
AcDbLine
  8
new-keys
 62
5
370
-1
  6
ByLayer
 10
108.7000000000000313
 20
33.7000000000000099
 30
0.0
 11
108.7000000000000313
 21
47.3000000000000043
 31
0.0
  0
MTEXT
  5
1FE
100
AcDbEntity
100
AcDbMText
  8
0
 62
4
370
-1
  6
ByLayer
 10
220.4999999999999716
 20
62.9999999999999361
 30
0.0
 40
3.0
 41
100.0
 71
1
 72
2
  1
shift\P
  7
normallatin1
 50
360.0
 73
1
 44
1.0
  0
LINE
  5
1FF
100
AcDbEntity
100
AcDbLine
  8
new-keys
 62
5
370
-1
  6
ByLayer
 10
218.9500000000000171
 20
66.2999999999999829
 30
0.0
 11
232.5500000000000114
 21
66.2999999999999829
 31
0.0
  0
LINE
  5
200
100
AcDbEntity
100
AcDbLine
  8
new-keys
 62
5
370
-1
  6
ByLayer
 10
232.5500000000000114
 20
66.2999999999999829
 30
0.0
 11
232.5500000000000114
 21
52.6999999999999886
 31
0.0
  0
LINE
  5
201
100
AcDbEntity
100
AcDbLine
  8
new-keys
 62
5
370
-1
  6
ByLayer
 10
232.5500000000000114
 20
52.6999999999999886
 30
0.0
 11
218.9500000000000171
 21
52.6999999999999886
 31
0.0
  0
LINE
  5
202
100
AcDbEntity
100
AcDbLine
  8
new-keys
 62
5
370
-1
  6
ByLayer
 10
218.9500000000000171
 20
52.6999999999999886
 30
0.0
 11
218.9500000000000171
 21
66.2999999999999829
 31
0.0
  0
LINE
  5
203
100
AcDbEntity
100
AcDbLine
  8
new-keys
 62
5
370
-1
  6
ByLayer
 10
212.2500000000000284
 20
66.2999999999999687
 30
0.0
 11
215.2500000000000284
 21
66.2999999999999687
 31
0.0
  0
LINE
  5
204
100
AcDbEntity
100
AcDbLine
  8
new-keys
 62
5
370
-1
  6
ByLayer
 10
215.2500000000000284
 20
66.2999999999999687
 30
0.0
 11
215.2500000000000284
 21
52.6999999999999602
 31
0.0
  0
LINE
  5
205
100
AcDbEntity
100
AcDbLine
  8
new-keys
 62
5
370
-1
  6
ByLayer
 10
215.2500000000000284
 20
52.6999999999999602
 30
0.0
 11
212.2500000000000284
 21
52.6999999999999602
 31
0.0
  0
LINE
  5
206
100
AcDbEntity
100
AcDbLine
  8
new-keys
 62
5
370
-1
  6
ByLayer
 10
212.2500000000000284
 20
52.6999999999999602
 30
0.0
 11
212.2500000000000284
 21
66.2999999999999687
 31
0.0
  0
LINE
  5
207
100
AcDbEntity
100
AcDbLine
  8
new-keys
 62
5
370
-1
  6
ByLayer
 10
239.2500000000000284
 20
66.2999999999999687
 30
0.0
 11
236.2500000000000284
 21
66.2999999999999687
 31
0.0
  0
LINE
  5
208
100
AcDbEntity
100
AcDbLine
  8
new-keys
 62
5
370
-1
  6
ByLayer
 10
236.2500000000000284
 20
66.2999999999999687
 30
0.0
 11
236.2500000000000284
 21
52.6999999999999531
 31
0.0
  0
LINE
  5
209
100
AcDbEntity
100
AcDbLine
  8
new-keys
 62
5
370
-1
  6
ByLayer
 10
236.2500000000000284
 20
52.6999999999999531
 30
0.0
 11
239.2500000000000284
 21
52.6999999999999531
 31
0.0
  0
LINE
  5
20A
100
AcDbEntity
100
AcDbLine
  8
new-keys
 62
5
370
-1
  6
ByLayer
 10
239.2500000000000284
 20
52.6999999999999531
 30
0.0
 11
239.2500000000000284
 21
66.2999999999999687
 31
0.0
  0
ENDSEC
  0
SECTION
  2
OBJECTS
  0
DICTIONARY
  5
C
100
AcDbDictionary
280
0
281
1
  3
ACAD_GROUP
350
D
  3
ACAD_LAYOUT
350
1A
  3
ACAD_MLINESTYLE
350
17
  3
ACAD_PLOTSETTINGS
350
19
  3
ACAD_PLOTSTYLENAME
350
E
  3
AcDbVariableDictionary
350
20B
  0
DICTIONARY
  5
D
100
AcDbDictionary
280
0
281
1
  0
ACDBDICTIONARYWDFLT
  5
E
100
AcDbDictionary
281
1
  3
Normal
350
F
100
AcDbDictionaryWithDefault
340
F
  0
ACDBPLACEHOLDER
  5
F
  0
DICTIONARY
  5
17
100
AcDbDictionary
280
0
281
1
  3
Standard
350
18
  0
MLINESTYLE
  5
18
100
AcDbMlineStyle
  2
STANDARD
 70
0
  3

 62
256
 51
90.0
 52
90.0
 71
2
 49
0.5
 62
256
  6
BYLAYER
 49
-0.5
 62
256
  6
BYLAYER
  0
DICTIONARY
  5
19
100
AcDbDictionary
280
0
281
1
  0
DICTIONARY
  5
1A
100
AcDbDictionary
281
1
  3
Layout1
350
1E
  3
Layout2
350
26
  3
Model
350
22
  0
LAYOUT
  5
1E
100
AcDbPlotSettings
  1

  2
C:\Program Files\AutoCAD 2002\plotters\DWF ePlot (optimized for plotting).pc3
  4

  6

 40
0.0
 41
0.0
 42
0.0
 43
0.0
 44
0.0
 45
0.0
 46
0.0
 47
0.0
 48
0.0
 49
0.0
140
0.0
141
0.0
142
1.0
143
1.0
 70
688
 72
0
 73
0
 74
5
  7

 75
16
147
1.0
148
0.0
149
0.0
100
AcDbLayout
  1
Layout1
 70
1
 71
1
 10
0.0
 20
0.0
 11
420.0
 21
297.0
 12
0.0
 22
0.0
 32
0.0
 14
100000000000000000000.0
 24
100000000000000000000.0
 34
100000000000000000000.0
 15
-100000000000000000000.0
 25
-100000000000000000000.0
 35
-100000000000000000000.0
146
0.0
 13
0.0
 23
0.0
 33
0.0
 16
1.0
 26
0.0
 36
0.0
 17
0.0
 27
1.0
 37
0.0
 76
0
330
1B
  0
LAYOUT
  5
22
100
AcDbPlotSettings
  1

  2
C:\Program Files\AutoCAD 2002\plotters\DWF ePlot (optimized for plotting).pc3
  4

  6

 40
0.0
 41
0.0
 42
0.0
 43
0.0
 44
0.0
 45
0.0
 46
0.0
 47
0.0
 48
0.0
 49
0.0
140
0.0
141
0.0
142
1.0
143
1.0
 70
1712
 72
0
 73
0
 74
0
  7

 75
0
147
1.0
148
0.0
149
0.0
100
AcDbLayout
  1
Model
 70
1
 71
0
 10
0.0
 20
0.0
 11
12.0
 21
9.0
 12
0.0
 22
0.0
 32
0.0
 14
0.0
 24
0.0
 34
0.0
 15
0.0
 25
0.0
 35
0.0
146
0.0
 13
0.0
 23
0.0
 33
0.0
 16
1.0
 26
0.0
 36
0.0
 17
0.0
 27
1.0
 37
0.0
 76
0
330
1F
  0
LAYOUT
  5
26
100
AcDbPlotSettings
  1

  2
C:\Program Files\AutoCAD 2002\plotters\DWF ePlot (optimized for plotting).pc3
  4

  6

 40
0.0
 41
0.0
 42
0.0
 43
0.0
 44
0.0
 45
0.0
 46
0.0
 47
0.0
 48
0.0
 49
0.0
140
0.0
141
0.0
142
1.0
143
1.0
 70
688
 72
0
 73
0
 74
5
  7

 75
16
147
1.0
148
0.0
149
0.0
100
AcDbLayout
  1
Layout2
 70
1
 71
2
 10
0.0
 20
0.0
 11
12.0
 21
9.0
 12
0.0
 22
0.0
 32
0.0
 14
0.0
 24
0.0
 34
0.0
 15
0.0
 25
0.0
 35
0.0
146
0.0
 13
0.0
 23
0.0
 33
0.0
 16
1.0
 26
0.0
 36
0.0
 17
0.0
 27
1.0
 37
0.0
 76
0
330
23
  0
DICTIONARY
  5
20B
100
AcDbDictionary
281
1
  3
DIMASSOC
350
20D
  3
HIDETEXT
350
20C
  0
DICTIONARYVAR
  5
20C
100
DictionaryVariables
280
0
  1
2
  0
DICTIONARYVAR
  5
20D
100
DictionaryVariables
280
0
  1
1
  0
ENDSEC
  0
EOF
